<svg width="482" height="311" viewBox="0 0 482 311" fill="none" xmlns="http://www.w3.org/2000/svg">
<path d="M482 0H0V310.876H482V0Z" fill="#F2F7F9"/>
<path d="M467.669 39.0811H14.3281V291.805H467.669V39.0811Z" fill="white"/>
<rect x="40.8828" y="56.5161" width="134.481" height="134.481" rx="4.5" fill="#F2F7F9" stroke="#DDEAF3"/>
<path d="M482 0H0V19.9645H482V0Z" fill="#DE1D43"/>
<path d="M14.2583 14.2632C15.8336 14.2632 17.1104 12.9863 17.1104 11.4112C17.1104 9.83599 15.8336 8.55908 14.2583 8.55908C12.6832 8.55908 11.4062 9.83599 11.4062 11.4112C11.4062 12.9863 12.6832 14.2632 14.2583 14.2632Z" fill="white"/>
<path d="M28.516 14.2632C30.0913 14.2632 31.3681 12.9863 31.3681 11.4112C31.3681 9.83599 30.0913 8.55908 28.516 8.55908C26.9409 8.55908 25.6641 9.83599 25.6641 11.4112C25.6641 12.9863 26.9409 14.2632 28.516 14.2632Z" fill="white"/>
<path d="M42.7816 14.2632C44.3569 14.2632 45.6337 12.9863 45.6337 11.4112C45.6337 9.83599 44.3569 8.55908 42.7816 8.55908C41.2065 8.55908 39.9297 9.83599 39.9297 11.4112C39.9297 12.9863 41.2065 14.2632 42.7816 14.2632Z" fill="white"/>
<path fill-rule="evenodd" clip-rule="evenodd" d="M136.566 101.626C136.566 98.1488 133.721 95.3037 130.244 95.3037H85.9865C82.5092 95.3037 79.6641 98.1488 79.6641 101.626V145.883C79.6641 149.361 82.5092 152.206 85.9865 152.206H130.244C133.721 152.206 136.566 149.361 136.566 145.883V101.626ZM97.0485 128.498L104.952 138.014L116.016 123.756L130.241 142.724H85.9842L97.0485 128.498Z" fill="#DE1D43"/>
<rect x="191.5" y="66.438" width="257.935" height="11.7243" rx="1" fill="#BFD4E4"/>
<rect x="191.5" y="88.584" width="207.13" height="11.7243" rx="1" fill="#BFD4E4"/>
<path d="M191.932 122.228C192.296 122.284 192.884 122.326 193.262 122.326H200.892C201.312 122.326 201.802 122.284 202.194 122.228V124.16C201.788 124.118 201.298 124.09 200.892 124.09H193.262C192.884 124.09 192.296 124.118 191.932 124.16V122.228ZM195.978 130.852V123.306H197.924V130.852H195.978ZM191.036 129.704C191.484 129.774 191.988 129.816 192.408 129.816H201.648C202.138 129.816 202.586 129.746 202.95 129.704V131.72C202.558 131.678 201.97 131.664 201.648 131.664H192.408C192.002 131.664 191.498 131.678 191.036 131.72V129.704ZM217.356 122.536C217.216 122.718 216.95 123.054 216.824 123.25C216.166 124.342 214.836 126.12 213.45 127.1L211.994 125.938C213.128 125.252 214.22 124.02 214.584 123.334C213.73 123.334 208.158 123.334 207.276 123.334C206.702 123.334 206.226 123.362 205.568 123.432V121.472C206.114 121.556 206.702 121.626 207.276 121.626C208.158 121.626 214.094 121.626 214.822 121.626C215.214 121.626 215.984 121.57 216.25 121.5L217.356 122.536ZM211.658 124.412C211.658 127.884 211.574 130.74 207.766 132.798L206.128 131.468C206.59 131.314 207.094 131.076 207.612 130.684C209.376 129.452 209.712 127.982 209.712 125.686C209.712 125.238 209.698 124.874 209.628 124.412H211.658ZM227.534 121.584C227.926 122.172 228.5 123.068 228.808 123.712L227.604 124.244C227.184 123.362 226.876 122.802 226.358 122.088L227.534 121.584ZM229.368 120.828C229.788 121.388 230.376 122.256 230.684 122.886L229.508 123.474C229.06 122.578 228.724 122.06 228.206 121.374L229.368 120.828ZM221.962 130.866C221.962 129.802 221.962 124.006 221.962 122.816C221.962 122.312 221.906 121.626 221.808 121.136H224.006C223.95 121.626 223.88 122.242 223.88 122.816C223.88 124.37 223.88 129.83 223.88 130.866C223.88 131.272 223.95 132.252 224.006 132.812H221.822C221.906 132.266 221.962 131.426 221.962 130.866ZM223.46 124.748C225.336 125.266 228.346 126.372 229.732 127.058L228.934 128.99C227.352 128.164 224.986 127.268 223.46 126.764V124.748ZM233.764 122.074C234.324 122.088 234.856 122.102 235.234 122.102C236.256 122.102 241.94 122.102 242.948 122.102C243.298 122.102 243.816 122.102 244.334 122.088C244.306 122.508 244.306 123.012 244.306 123.446C244.306 124.3 244.306 129.452 244.306 130.306C244.306 130.852 244.32 132.196 244.334 132.252H242.388C242.388 132.196 242.43 131.104 242.43 130.334C242.43 129.522 242.43 123.894 242.43 123.894H235.654C235.654 123.894 235.654 129.508 235.654 130.334C235.654 131.006 235.668 132.182 235.668 132.252H233.75C233.75 132.182 233.778 130.95 233.778 130.278C233.778 129.438 233.778 124.258 233.778 123.446C233.778 123.04 233.778 122.48 233.764 122.074ZM243.116 129.704V131.482H234.702V129.704H243.116ZM253.056 123.698C253.322 124.286 254.008 126.12 254.204 126.764L252.538 127.338C252.356 126.666 251.74 124.972 251.404 124.244L253.056 123.698ZM258.222 124.706C258.068 125.168 257.984 125.462 257.9 125.742C257.536 127.156 256.934 128.612 255.982 129.83C254.68 131.524 252.944 132.686 251.306 133.316L249.836 131.818C251.362 131.398 253.322 130.334 254.47 128.878C255.422 127.702 256.108 125.84 256.262 124.076L258.222 124.706ZM249.808 124.426C250.158 125.14 250.844 126.848 251.11 127.632L249.402 128.262C249.178 127.52 248.464 125.644 248.128 125.042L249.808 124.426ZM271.242 121.738C271.242 122.186 271.606 122.55 272.054 122.55C272.502 122.55 272.866 122.186 272.866 121.738C272.866 121.29 272.502 120.926 272.054 120.926C271.606 120.926 271.242 121.29 271.242 121.738ZM270.374 121.738C270.374 120.814 271.13 120.058 272.054 120.058C272.978 120.058 273.734 120.814 273.734 121.738C273.734 122.662 272.978 123.418 272.054 123.418C271.13 123.418 270.374 122.662 270.374 121.738ZM272.082 122.844C271.942 123.11 271.844 123.516 271.774 123.81C271.452 125.182 270.836 127.366 269.66 128.92C268.4 130.6 266.538 131.986 264.032 132.784L262.506 131.104C265.292 130.46 266.874 129.242 267.994 127.828C268.932 126.666 269.464 125.07 269.646 123.866C268.792 123.866 264.172 123.866 263.122 123.866C262.478 123.866 261.82 123.908 261.456 123.936V121.948C261.876 122.004 262.66 122.074 263.122 122.074C264.172 122.074 268.82 122.074 269.604 122.074C269.884 122.074 270.332 122.06 270.696 121.962L272.082 122.844Z" fill="#DE1D43"/>
<path d="M206.704 245.828C207.016 245.864 207.484 245.9 207.772 245.9H214.336C214.696 245.9 215.092 245.864 215.404 245.828V247.136C215.08 247.112 214.684 247.088 214.336 247.088H207.772C207.496 247.088 207.004 247.112 206.704 247.136V245.828ZM210.304 253.016V246.572H211.612V253.016H210.304ZM205.96 252.26C206.32 252.308 206.716 252.344 207.064 252.344H214.984C215.38 252.344 215.728 252.296 216.04 252.26V253.628C215.704 253.58 215.236 253.58 214.984 253.58H207.064C206.728 253.58 206.332 253.592 205.96 253.628V252.26ZM228.292 245.888C228.184 246.02 228.004 246.248 227.908 246.404C227.392 247.268 226.252 248.804 224.968 249.704L223.972 248.912C225.016 248.3 226.06 247.1 226.42 246.428C225.628 246.428 220.48 246.428 219.832 246.428C219.364 246.428 218.932 246.452 218.428 246.5V245.156C218.86 245.228 219.364 245.276 219.832 245.276C220.48 245.276 225.856 245.276 226.54 245.276C226.816 245.276 227.344 245.24 227.548 245.18L228.292 245.888ZM223.456 247.484C223.456 250.616 223.264 252.92 220.12 254.552L219.004 253.652C219.364 253.532 219.784 253.328 220.168 253.052C221.884 251.948 222.148 250.436 222.148 248.444C222.148 248.12 222.136 247.832 222.088 247.484H223.456ZM237.004 245.24C237.316 245.708 237.82 246.5 238.096 247.052L237.256 247.436C236.932 246.752 236.608 246.164 236.188 245.588L237.004 245.24ZM238.504 244.616C238.84 245.06 239.356 245.84 239.632 246.392L238.816 246.8C238.468 246.104 238.12 245.552 237.7 245L238.504 244.616ZM232.54 253.076C232.54 252.296 232.54 247.136 232.54 246.128C232.54 245.744 232.504 245.192 232.432 244.796H233.92C233.872 245.18 233.824 245.708 233.824 246.128C233.824 247.76 233.824 252.356 233.824 253.076C233.824 253.436 233.872 254.168 233.92 254.6H232.444C232.504 254.18 232.54 253.532 232.54 253.076ZM233.548 247.916C235.144 248.372 237.628 249.308 238.9 249.932L238.372 251.228C237.004 250.496 234.856 249.68 233.548 249.272V247.916ZM242.644 245.66C243.124 245.672 243.496 245.684 243.796 245.684C244.54 245.684 249.604 245.684 250.312 245.684C250.588 245.684 251.032 245.684 251.428 245.66C251.404 245.984 251.404 246.368 251.404 246.692C251.404 247.328 251.404 252.02 251.404 252.596C251.404 253.016 251.416 254.048 251.428 254.144H250.12C250.12 254.048 250.144 253.256 250.144 252.68C250.144 252.128 250.144 246.884 250.144 246.884H243.916C243.916 246.884 243.916 252.092 243.916 252.68C243.916 253.16 243.928 254.024 243.928 254.144H242.632C242.632 254.024 242.668 253.076 242.668 252.584C242.668 251.996 242.668 247.256 242.668 246.692C242.668 246.392 242.668 245.972 242.644 245.66ZM250.624 252.272V253.472H243.292V252.272H250.624ZM258.904 247.004C259.12 247.496 259.708 249.068 259.864 249.608L258.736 250.004C258.604 249.44 258.064 247.952 257.788 247.376L258.904 247.004ZM263.284 247.76C263.176 248.072 263.116 248.288 263.056 248.48C262.744 249.752 262.228 251.024 261.388 252.092C260.272 253.52 258.796 254.48 257.428 254.996L256.432 253.988C257.788 253.604 259.384 252.692 260.368 251.456C261.208 250.424 261.808 248.864 261.976 247.34L263.284 247.76ZM256.12 247.616C256.384 248.168 256.996 249.692 257.224 250.34L256.072 250.772C255.88 250.136 255.256 248.504 254.992 248.036L256.12 247.616ZM274.648 245.312C274.648 245.72 274.984 246.056 275.404 246.056C275.812 246.056 276.148 245.72 276.148 245.312C276.148 244.892 275.812 244.556 275.404 244.556C274.984 244.556 274.648 244.892 274.648 245.312ZM274.012 245.312C274.012 244.544 274.636 243.92 275.404 243.92C276.16 243.92 276.784 244.544 276.784 245.312C276.784 246.068 276.16 246.692 275.404 246.692C274.636 246.692 274.012 246.068 274.012 245.312ZM275.236 246.176C275.14 246.368 275.08 246.632 275.02 246.872C274.756 248.096 274.204 250.004 273.22 251.276C272.14 252.704 270.628 253.844 268.456 254.54L267.424 253.4C269.776 252.836 271.132 251.804 272.116 250.544C272.944 249.5 273.46 247.964 273.616 246.86C272.908 246.86 268.504 246.86 267.724 246.86C267.208 246.86 266.728 246.884 266.428 246.908V245.564C266.764 245.612 267.328 245.66 267.724 245.66C268.504 245.66 272.932 245.66 273.544 245.66C273.748 245.66 274.048 245.648 274.312 245.576L275.236 246.176Z" fill="#183B56"/>
<rect x="41.6875" y="224.065" width="402.535" height="1.3027" fill="#DDEAF3"/>
<rect x="320.461" y="173.26" width="123.757" height="18.2378" rx="3" fill="#DE1D43"/>
<rect opacity="0.2" width="66.4378" height="6.51351" rx="3" transform="matrix(1 0 0 -1 349.117 186.287)" fill="black"/>
<rect x="191.492" y="173.26" width="123.757" height="18.2378" rx="3" fill="#DE1D43"/>
<rect opacity="0.2" width="66.4378" height="6.51351" rx="3" transform="matrix(1 0 0 -1 220.148 186.287)" fill="black"/>
<rect x="26" y="151" width="157" height="39" rx="7" fill="#FFDDDD"/>
<path d="M197.5 186L178 179L175 186H197.5Z" fill="#FFDDDD"/>
<path d="M80.536 166.766C80.368 167.06 80.144 167.592 80.018 167.9C79.5 169.286 78.646 171.12 77.498 172.604C76.168 174.298 74.39 176.132 71.716 177.546L70.498 176.44C73.074 175.208 74.852 173.584 76.308 171.708C77.442 170.238 78.114 168.74 78.59 167.354C78.702 167.032 78.842 166.528 78.898 166.206L80.536 166.766ZM73.004 168.292C74.39 169.16 76.336 170.532 77.442 171.414C78.884 172.576 80.312 173.836 81.432 175.04L80.298 176.286C79.108 174.9 77.89 173.78 76.448 172.576C75.44 171.736 73.704 170.406 72.066 169.412L73.004 168.292ZM84.358 170.756C84.82 170.798 85.674 170.84 86.444 170.84C87.746 170.84 92.912 170.84 94.046 170.84C94.732 170.84 95.278 170.784 95.614 170.756V172.492C95.306 172.478 94.662 172.422 94.06 172.422C92.912 172.422 87.746 172.422 86.444 172.422C85.66 172.422 84.834 172.45 84.358 172.492V170.756ZM104.196 176.706C104.252 176.468 104.308 176.132 104.308 175.81C104.308 175.124 104.308 168.516 104.308 167.522C104.308 166.948 104.224 166.486 104.21 166.416H105.848C105.834 166.486 105.764 166.962 105.764 167.536C105.764 168.516 105.764 174.662 105.764 175.278C106.996 174.732 108.564 173.528 109.586 172.044L110.426 173.262C109.236 174.844 107.262 176.314 105.666 177.112C105.4 177.252 105.246 177.378 105.134 177.476L104.196 176.706ZM97.756 176.58C98.96 175.726 99.758 174.466 100.164 173.178C100.57 171.932 100.584 169.202 100.584 167.578C100.584 167.102 100.542 166.766 100.472 166.444H102.096C102.082 166.57 102.012 167.074 102.012 167.564C102.012 169.16 101.97 172.142 101.592 173.556C101.172 175.082 100.276 176.454 99.1 177.462L97.756 176.58ZM114.192 166.01H118.154V167.354H114.192V166.01ZM117.496 166.01H118.854C118.854 168.586 119.204 173.822 124.58 177C124.272 177.238 123.74 177.812 123.502 178.134C118.028 174.83 117.496 168.74 117.496 166.01ZM117.006 168.894L118.518 169.174C117.524 173.388 115.676 176.37 112.652 178.162C112.414 177.882 111.798 177.336 111.448 177.084C114.472 175.53 116.194 172.744 117.006 168.894ZM126.106 168.18H136.914V169.538H126.106V168.18ZM136.382 168.18H137.754C137.754 168.18 137.74 168.656 137.726 168.852C137.418 174.564 137.138 176.664 136.508 177.378C136.144 177.854 135.78 177.98 135.206 178.036C134.702 178.106 133.82 178.078 132.952 178.036C132.938 177.644 132.756 177.056 132.504 176.678C133.428 176.748 134.296 176.762 134.66 176.762C134.954 176.762 135.122 176.72 135.304 176.538C135.822 176.048 136.116 173.85 136.382 168.46V168.18ZM130.558 165.212H131.958V167.844C131.958 171.022 131.538 175.404 126.708 178.246C126.498 177.924 126.008 177.42 125.686 177.182C130.208 174.592 130.558 170.658 130.558 167.844V165.212Z" fill="#DE1D43"/>
</svg>
