<svg xmlns="http://www.w3.org/2000/svg" width="540" height="349" viewBox="0 0 540 349" fill="none">
<path d="M540 0.516602H0V348.801H540V0.516602Z" fill="#F2F7F9"/>
<path d="M523.947 44.3003H16.0547V327.435H523.947V44.3003Z" fill="white"/>
<rect x="45.7422" y="63.7734" width="150.784" height="150.784" rx="4.5" fill="#F2F7F9" stroke="#DDEAF3"/>
<path d="M540 0.516602H0V22.8835H540V0.516602Z" fill="#DE1D43"/>
<path d="M15.9765 16.496C17.7414 16.496 19.1718 15.0654 19.1718 13.3007C19.1718 11.536 17.7414 10.1055 15.9765 10.1055C14.2119 10.1055 12.7812 11.536 12.7812 13.3007C12.7812 15.0654 14.2119 16.496 15.9765 16.496Z" fill="white"/>
<path d="M31.9451 16.496C33.7099 16.496 35.1404 15.0654 35.1404 13.3007C35.1404 11.536 33.7099 10.1055 31.9451 10.1055C30.1805 10.1055 28.75 11.536 28.75 13.3007C28.75 15.0654 30.1805 16.496 31.9451 16.496Z" fill="white"/>
<path d="M47.9295 16.496C49.6943 16.496 51.1248 15.0654 51.1248 13.3007C51.1248 11.536 49.6943 10.1055 47.9295 10.1055C46.1649 10.1055 44.7344 11.536 44.7344 13.3007C44.7344 15.0654 46.1649 16.496 47.9295 16.496Z" fill="white"/>
<path fill-rule="evenodd" clip-rule="evenodd" d="M152.999 114.372C152.999 110.476 149.812 107.289 145.916 107.289H96.3332C92.4375 107.289 89.25 110.476 89.25 114.372V163.955C89.25 167.85 92.4375 171.038 96.3332 171.038H145.916C149.812 171.038 152.999 167.85 152.999 163.955V114.372ZM108.724 144.477L117.578 155.137L129.974 139.165L145.911 160.414H96.3281L108.724 144.477Z" fill="#DE1D43"/>
<rect x="214.547" y="74.9492" width="288.973" height="13.1351" rx="1" fill="#BFD4E4"/>
<rect x="214.547" y="99.7603" width="232.054" height="13.1351" rx="1" fill="#BFD4E4"/>
<path d="M216.387 142.71L216.079 143.844H218.543L218.235 142.71C217.913 141.632 217.633 140.442 217.339 139.322H217.269C217.003 140.456 216.695 141.632 216.387 142.71ZM212.803 148.114L216.121 137.74H218.557L221.889 148.114H219.719L218.991 145.454H215.631L214.903 148.114H212.803ZM222.934 148.114V140.274H224.992V148.114H222.934ZM223.97 139.014C223.256 139.014 222.766 138.566 222.766 137.88C222.766 137.208 223.256 136.76 223.97 136.76C224.67 136.76 225.16 137.208 225.16 137.88C225.16 138.566 224.67 139.014 223.97 139.014ZM227.186 148.114V140.274H228.866L229.02 141.66H229.062C229.636 140.638 230.476 140.078 231.288 140.078C231.722 140.078 231.974 140.148 232.212 140.246L231.862 142.024C231.582 141.94 231.358 141.898 231.036 141.898C230.42 141.898 229.678 142.304 229.244 143.438V148.114H227.186ZM235.878 148.31C233.932 148.31 232.672 146.77 232.672 144.194C232.672 141.646 234.268 140.078 235.962 140.078C236.844 140.078 237.39 140.414 237.95 140.932L237.88 139.7V136.942H239.924V148.114H238.258L238.104 147.302H238.048C237.474 147.862 236.69 148.31 235.878 148.31ZM236.41 146.616C236.956 146.616 237.418 146.392 237.88 145.804V142.36C237.404 141.926 236.9 141.772 236.41 141.772C235.528 141.772 234.786 142.612 234.786 144.18C234.786 145.804 235.374 146.616 236.41 146.616ZM242.129 148.114V140.274H243.809L243.963 141.66H244.005C244.579 140.638 245.419 140.078 246.231 140.078C246.665 140.078 246.917 140.148 247.155 140.246L246.805 142.024C246.525 141.94 246.301 141.898 245.979 141.898C245.363 141.898 244.621 142.304 244.187 143.438V148.114H242.129ZM251.339 148.31C249.379 148.31 247.573 146.798 247.573 144.194C247.573 141.59 249.379 140.078 251.339 140.078C253.299 140.078 255.105 141.59 255.105 144.194C255.105 146.798 253.299 148.31 251.339 148.31ZM251.339 146.63C252.403 146.63 253.005 145.678 253.005 144.194C253.005 142.724 252.403 141.758 251.339 141.758C250.275 141.758 249.673 142.724 249.673 144.194C249.673 145.678 250.275 146.63 251.339 146.63ZM256.827 151.124V140.274H258.507L258.661 141.086H258.703C259.361 140.526 260.173 140.078 261.013 140.078C262.945 140.078 264.093 141.66 264.093 144.068C264.093 146.756 262.483 148.31 260.761 148.31C260.075 148.31 259.417 148.002 258.815 147.456L258.885 148.744V151.124H256.827ZM260.299 146.616C261.251 146.616 261.979 145.804 261.979 144.096C261.979 142.598 261.503 141.772 260.425 141.772C259.893 141.772 259.417 142.038 258.885 142.584V146.028C259.375 146.462 259.879 146.616 260.299 146.616Z" fill="#DE1D43"/>
<path d="M251.376 280.356L251.016 281.544H253.428L253.08 280.356C252.78 279.396 252.516 278.412 252.252 277.416H252.192C251.94 278.424 251.664 279.396 251.376 280.356ZM248.52 285.156L251.448 276.312H253.056L255.984 285.156H254.508L253.764 282.636H250.692L249.936 285.156H248.52ZM257.029 285.156V278.556H258.409V285.156H257.029ZM257.713 277.32C257.209 277.32 256.861 276.996 256.861 276.492C256.861 276 257.209 275.676 257.713 275.676C258.217 275.676 258.577 276 258.577 276.492C258.577 276.996 258.217 277.32 257.713 277.32ZM260.474 285.156V278.556H261.602L261.71 279.744H261.746C262.214 278.892 262.91 278.388 263.618 278.388C263.942 278.388 264.158 278.436 264.362 278.532L264.11 279.732C263.882 279.66 263.714 279.624 263.45 279.624C262.91 279.624 262.262 279.996 261.854 281.04V285.156H260.474ZM267.536 285.312C265.88 285.312 264.812 284.052 264.812 281.856C264.812 279.72 266.168 278.388 267.644 278.388C268.4 278.388 268.88 278.676 269.42 279.132L269.36 278.04V275.592H270.74V285.156H269.612L269.504 284.412H269.456C268.964 284.916 268.28 285.312 267.536 285.312ZM267.86 284.172C268.412 284.172 268.88 283.92 269.36 283.368V280.14C268.868 279.696 268.4 279.54 267.908 279.54C266.984 279.54 266.24 280.416 266.24 281.844C266.24 283.344 266.828 284.172 267.86 284.172ZM272.814 285.156V278.556H273.942L274.05 279.744H274.086C274.554 278.892 275.25 278.388 275.958 278.388C276.282 278.388 276.498 278.436 276.702 278.532L276.45 279.732C276.222 279.66 276.054 279.624 275.79 279.624C275.25 279.624 274.602 279.996 274.194 281.04V285.156H272.814ZM280.236 285.312C278.604 285.312 277.128 284.052 277.128 281.856C277.128 279.66 278.604 278.388 280.236 278.388C281.868 278.388 283.344 279.66 283.344 281.856C283.344 284.052 281.868 285.312 280.236 285.312ZM280.236 284.184C281.28 284.184 281.928 283.26 281.928 281.856C281.928 280.464 281.28 279.528 280.236 279.528C279.204 279.528 278.556 280.464 278.556 281.856C278.556 283.26 279.204 284.184 280.236 284.184ZM284.967 287.832V278.556H286.095L286.203 279.276H286.239C286.815 278.796 287.535 278.388 288.279 278.388C289.947 278.388 290.883 279.72 290.883 281.748C290.883 284.016 289.527 285.312 288.039 285.312C287.451 285.312 286.863 285.048 286.299 284.568L286.347 285.696V287.832H284.967ZM287.775 284.172C288.735 284.172 289.455 283.32 289.455 281.772C289.455 280.392 289.011 279.54 287.907 279.54C287.391 279.54 286.899 279.804 286.347 280.344V283.572C286.863 284.016 287.367 284.172 287.775 284.172Z" fill="#183B56"/>
<rect x="46.7031" y="251.544" width="450.973" height="1.45946" fill="#DDEAF3"/>
<rect x="359.023" y="194.625" width="138.649" height="20.4324" rx="3" fill="#DE1D43"/>
<rect opacity="0.2" width="74.4324" height="7.2973" rx="3" transform="matrix(1 0 0 -1 391.125 209.219)" fill="black"/>
<rect x="214.539" y="194.625" width="138.649" height="20.4324" rx="3" fill="#DE1D43"/>
<rect opacity="0.2" width="74.4324" height="7.2973" rx="3" transform="matrix(1 0 0 -1 246.641 209.219)" fill="black"/>
<rect x="29.1328" y="169.687" width="175.892" height="43.6929" rx="7" fill="#FFDDDD"/>
<path d="M221.27 208.898L199.423 201.056L196.062 208.898H221.27Z" fill="#FFDDDD"/>
<path d="M84.3167 198.649V188.331H85.9407V198.649H84.3167ZM88.497 198.649V190.949H89.813L89.939 192.013H89.981C90.695 191.327 91.479 190.753 92.529 190.753C94.167 190.753 94.895 191.845 94.895 193.805V198.649H93.285V194.001C93.285 192.671 92.893 192.139 91.983 192.139C91.269 192.139 90.779 192.503 90.107 193.189V198.649H88.497ZM97.2333 201.771V190.949H98.5493L98.6753 191.789H98.7173C99.3893 191.229 100.229 190.753 101.097 190.753C103.043 190.753 104.135 192.307 104.135 194.673C104.135 197.319 102.553 198.831 100.817 198.831C100.131 198.831 99.4453 198.523 98.7873 197.963L98.8433 199.279V201.771H97.2333ZM100.509 197.501C101.629 197.501 102.469 196.507 102.469 194.701C102.469 193.091 101.951 192.097 100.663 192.097C100.061 192.097 99.4873 192.405 98.8433 193.035V196.801C99.4453 197.319 100.033 197.501 100.509 197.501ZM108.32 198.831C106.668 198.831 105.954 197.753 105.954 195.793V190.949H107.564V195.597C107.564 196.913 107.942 197.445 108.852 197.445C109.566 197.445 110.056 197.109 110.7 196.297V190.949H112.31V198.649H110.994L110.868 197.487H110.826C110.126 198.299 109.37 198.831 108.32 198.831ZM117.323 198.831C115.587 198.831 114.985 197.753 114.985 196.129V192.237H113.865V191.033L115.069 190.949L115.251 188.821H116.595V190.949H118.597V192.237H116.595V196.143C116.595 197.067 116.917 197.543 117.715 197.543C117.981 197.543 118.317 197.459 118.541 197.361L118.835 198.551C118.401 198.691 117.883 198.831 117.323 198.831ZM123.569 198.649V188.331H125.431L127.321 193.553C127.559 194.239 127.769 194.939 128.007 195.625H128.077C128.315 194.939 128.511 194.239 128.749 193.553L130.611 188.331H132.487V198.649H130.975V193.553C130.975 192.629 131.101 191.299 131.185 190.361H131.129L130.303 192.741L128.511 197.655H127.503L125.697 192.741L124.885 190.361H124.829C124.899 191.299 125.025 192.629 125.025 193.553V198.649H123.569ZM136.87 198.831C135.54 198.831 134.602 197.963 134.602 196.605C134.602 194.953 136.002 194.099 139.208 193.749C139.194 192.853 138.872 192.069 137.738 192.069C136.926 192.069 136.17 192.433 135.512 192.853L134.91 191.761C135.708 191.257 136.786 190.753 138.018 190.753C139.936 190.753 140.818 191.971 140.818 194.015V198.649H139.502L139.376 197.767H139.32C138.62 198.369 137.794 198.831 136.87 198.831ZM137.36 197.557C138.032 197.557 138.578 197.235 139.208 196.661V194.771C136.926 195.037 136.156 195.625 136.156 196.493C136.156 197.249 136.674 197.557 137.36 197.557ZM143.102 198.649V190.949H144.712V198.649H143.102ZM143.9 189.507C143.312 189.507 142.906 189.129 142.906 188.541C142.906 187.967 143.312 187.589 143.9 187.589C144.488 187.589 144.908 187.967 144.908 188.541C144.908 189.129 144.488 189.507 143.9 189.507ZM148.718 198.831C147.556 198.831 147.122 198.089 147.122 196.843V187.491H148.732V196.927C148.732 197.361 148.914 197.515 149.11 197.515C149.18 197.515 149.236 197.515 149.376 197.487L149.586 198.705C149.39 198.775 149.124 198.831 148.718 198.831Z" fill="#DE1D43"/>
</svg>