<svg width="1205" height="306" viewBox="0 0 1205 306" fill="none" xmlns="http://www.w3.org/2000/svg">
<rect x="0.5" y="78.5" width="133" height="133" rx="4.5" fill="white" stroke="#DDEAF3"/>
<rect x="14.5" y="92.5" width="105" height="105" rx="4.5" fill="#F2F7F9" stroke="#DDEAF3"/>
<path fill-rule="evenodd" clip-rule="evenodd" d="M66.1693 158.772H51.9193C51.8309 158.772 51.7459 158.735 51.6843 158.674C51.6209 158.61 51.5859 158.527 51.5859 158.439V156.02C51.5859 154.637 52.5743 153.417 54.0976 152.38C56.8176 150.524 61.2193 149.354 66.1693 149.354C66.8593 149.354 67.4193 148.794 67.4193 148.104C67.4193 147.415 66.8593 146.854 66.1693 146.854C60.6326 146.854 55.7309 148.239 52.6876 150.314C50.3659 151.897 49.0859 153.909 49.0859 156.02V158.439C49.0859 159.189 49.3843 159.91 49.9159 160.442C50.4476 160.972 51.1676 161.272 51.9193 161.272H66.1693C66.8593 161.27 67.4193 160.71 67.4193 160.02C67.4193 159.332 66.8593 158.77 66.1693 158.772Z" fill="#DE1D43"/>
<path fill-rule="evenodd" clip-rule="evenodd" d="M66.1667 127.083C61.1067 127.083 57 131.19 57 136.25C57 141.31 61.1067 145.417 66.1667 145.417C71.2267 145.417 75.3333 141.31 75.3333 136.25C75.3333 131.19 71.2267 127.083 66.1667 127.083ZM66.1667 129.583C69.8467 129.583 72.8333 132.57 72.8333 136.25C72.8333 139.93 69.8467 142.917 66.1667 142.917C62.4867 142.917 59.5 139.93 59.5 136.25C59.5 132.57 62.4867 129.583 66.1667 129.583Z" fill="#DE1D43"/>
<path fill-rule="evenodd" clip-rule="evenodd" d="M76.171 148.23C72.8944 148.23 70.2344 150.89 70.2344 154.167C70.2344 157.443 72.8944 160.105 76.171 160.105C79.4477 160.105 82.1094 157.443 82.1094 154.167C82.1094 150.89 79.4477 148.23 76.171 148.23ZM76.171 150.73C78.0677 150.73 79.6094 152.27 79.6094 154.167C79.6094 156.063 78.0677 157.605 76.171 157.605C74.2744 157.605 72.7327 156.063 72.7327 154.167C72.7327 152.27 74.2744 150.73 76.171 150.73Z" fill="#DE1D43"/>
<path fill-rule="evenodd" clip-rule="evenodd" d="M77.4219 149.479V146.667C77.4219 145.977 76.8619 145.417 76.1719 145.417C75.4819 145.417 74.9219 145.977 74.9219 146.667V149.48C74.9219 150.169 75.4819 150.73 76.1719 150.73C76.8619 150.729 77.4219 150.169 77.4219 149.479Z" fill="#DE1D43"/>
<path fill-rule="evenodd" clip-rule="evenodd" d="M80.3677 151.737L82.356 149.747C82.8444 149.26 82.8444 148.467 82.356 147.98C81.8694 147.492 81.076 147.492 80.5894 147.98L78.5994 149.968C78.1127 150.457 78.1127 151.248 78.5994 151.737C79.0877 152.223 79.8794 152.223 80.3677 151.737Z" fill="#DE1D43"/>
<path fill-rule="evenodd" clip-rule="evenodd" d="M80.8577 155.417H83.671C84.361 155.417 84.921 154.857 84.921 154.167C84.921 153.477 84.361 152.917 83.671 152.917H80.8577C80.1694 152.917 79.6094 153.477 79.6094 154.167C79.6077 154.857 80.1694 155.417 80.8577 155.417Z" fill="#DE1D43"/>
<path fill-rule="evenodd" clip-rule="evenodd" d="M78.5994 158.365L80.5894 160.354C81.076 160.842 81.8694 160.842 82.356 160.354C82.8444 159.867 82.8444 159.074 82.356 158.587L80.3677 156.597C79.8794 156.11 79.0877 156.11 78.5994 156.597C78.1127 157.085 78.1127 157.877 78.5994 158.365Z" fill="#DE1D43"/>
<path fill-rule="evenodd" clip-rule="evenodd" d="M74.9219 158.854V161.667C74.9219 162.357 75.4819 162.917 76.1719 162.917C76.8619 162.917 77.4219 162.357 77.4219 161.667V158.854C77.4219 158.165 76.8619 157.605 76.1719 157.604C75.4819 157.604 74.9219 158.165 74.9219 158.854Z" fill="#DE1D43"/>
<path fill-rule="evenodd" clip-rule="evenodd" d="M71.9718 156.597L69.9834 158.587C69.4951 159.074 69.4951 159.867 69.9834 160.354C70.4701 160.842 71.2634 160.842 71.7501 160.354L73.7401 158.365C74.2268 157.877 74.2268 157.085 73.7401 156.597C73.2518 156.11 72.4601 156.11 71.9718 156.597Z" fill="#DE1D43"/>
<path fill-rule="evenodd" clip-rule="evenodd" d="M71.4835 152.917H68.6719C67.9819 152.917 67.4219 153.477 67.4219 154.167C67.4219 154.857 67.9819 155.417 68.6719 155.417H71.4835C72.1735 155.417 72.7352 154.857 72.7335 154.167C72.7335 153.477 72.1735 152.917 71.4835 152.917Z" fill="#DE1D43"/>
<path fill-rule="evenodd" clip-rule="evenodd" d="M73.7401 149.968L71.7501 147.98C71.2634 147.492 70.4701 147.492 69.9834 147.98C69.4951 148.467 69.4951 149.26 69.9834 149.747L71.9718 151.737C72.4601 152.223 73.2518 152.223 73.7401 151.737C74.2268 151.248 74.2268 150.457 73.7401 149.968Z" fill="#DE1D43"/>
<path d="M133 141C132.448 141 132 141.448 132 142C132 142.552 132.448 143 133 143V141ZM473.707 142.707C474.098 142.317 474.098 141.683 473.707 141.293L467.343 134.929C466.953 134.538 466.319 134.538 465.929 134.929C465.538 135.319 465.538 135.953 465.929 136.343L471.586 142L465.929 147.657C465.538 148.047 465.538 148.681 465.929 149.071C466.319 149.462 466.953 149.462 467.343 149.071L473.707 142.707ZM137.048 143C137.6 143 138.048 142.552 138.048 142C138.048 141.448 137.6 141 137.048 141V143ZM145.143 141C144.591 141 144.143 141.448 144.143 142C144.143 142.552 144.591 143 145.143 143V141ZM153.238 143C153.79 143 154.238 142.552 154.238 142C154.238 141.448 153.79 141 153.238 141V143ZM161.333 141C160.781 141 160.333 141.448 160.333 142C160.333 142.552 160.781 143 161.333 143V141ZM169.429 143C169.981 143 170.429 142.552 170.429 142C170.429 141.448 169.981 141 169.429 141V143ZM177.524 141C176.972 141 176.524 141.448 176.524 142C176.524 142.552 176.972 143 177.524 143V141ZM185.619 143C186.171 143 186.619 142.552 186.619 142C186.619 141.448 186.171 141 185.619 141V143ZM193.714 141C193.162 141 192.714 141.448 192.714 142C192.714 142.552 193.162 143 193.714 143V141ZM201.81 143C202.362 143 202.81 142.552 202.81 142C202.81 141.448 202.362 141 201.81 141V143ZM209.905 141C209.352 141 208.905 141.448 208.905 142C208.905 142.552 209.352 143 209.905 143V141ZM218 143C218.552 143 219 142.552 219 142C219 141.448 218.552 141 218 141V143ZM226.095 141C225.543 141 225.095 141.448 225.095 142C225.095 142.552 225.543 143 226.095 143V141ZM234.19 143C234.743 143 235.19 142.552 235.19 142C235.19 141.448 234.743 141 234.19 141V143ZM242.286 141C241.733 141 241.286 141.448 241.286 142C241.286 142.552 241.733 143 242.286 143V141ZM250.381 143C250.933 143 251.381 142.552 251.381 142C251.381 141.448 250.933 141 250.381 141V143ZM258.476 141C257.924 141 257.476 141.448 257.476 142C257.476 142.552 257.924 143 258.476 143V141ZM266.571 143C267.124 143 267.571 142.552 267.571 142C267.571 141.448 267.124 141 266.571 141V143ZM274.667 141C274.114 141 273.667 141.448 273.667 142C273.667 142.552 274.114 143 274.667 143V141ZM282.762 143C283.314 143 283.762 142.552 283.762 142C283.762 141.448 283.314 141 282.762 141V143ZM290.857 141C290.305 141 289.857 141.448 289.857 142C289.857 142.552 290.305 143 290.857 143V141ZM298.952 143C299.505 143 299.952 142.552 299.952 142C299.952 141.448 299.505 141 298.952 141V143ZM307.048 141C306.495 141 306.048 141.448 306.048 142C306.048 142.552 306.495 143 307.048 143V141ZM315.143 143C315.695 143 316.143 142.552 316.143 142C316.143 141.448 315.695 141 315.143 141V143ZM323.238 141C322.686 141 322.238 141.448 322.238 142C322.238 142.552 322.686 143 323.238 143V141ZM331.333 143C331.886 143 332.333 142.552 332.333 142C332.333 141.448 331.886 141 331.333 141V143ZM339.429 141C338.876 141 338.429 141.448 338.429 142C338.429 142.552 338.876 143 339.429 143V141ZM347.524 143C348.076 143 348.524 142.552 348.524 142C348.524 141.448 348.076 141 347.524 141V143ZM355.619 141C355.067 141 354.619 141.448 354.619 142C354.619 142.552 355.067 143 355.619 143V141ZM363.714 143C364.267 143 364.714 142.552 364.714 142C364.714 141.448 364.267 141 363.714 141V143ZM371.81 141C371.257 141 370.81 141.448 370.81 142C370.81 142.552 371.257 143 371.81 143V141ZM379.905 143C380.457 143 380.905 142.552 380.905 142C380.905 141.448 380.457 141 379.905 141V143ZM388 141C387.448 141 387 141.448 387 142C387 142.552 387.448 143 388 143V141ZM396.095 143C396.648 143 397.095 142.552 397.095 142C397.095 141.448 396.648 141 396.095 141V143ZM404.191 141C403.638 141 403.191 141.448 403.191 142C403.191 142.552 403.638 143 404.191 143V141ZM412.286 143C412.838 143 413.286 142.552 413.286 142C413.286 141.448 412.838 141 412.286 141V143ZM420.381 141C419.829 141 419.381 141.448 419.381 142C419.381 142.552 419.829 143 420.381 143V141ZM428.476 143C429.029 143 429.476 142.552 429.476 142C429.476 141.448 429.029 141 428.476 141V143ZM436.572 141C436.019 141 435.572 141.448 435.572 142C435.572 142.552 436.019 143 436.572 143V141ZM444.667 143C445.219 143 445.667 142.552 445.667 142C445.667 141.448 445.219 141 444.667 141V143ZM452.762 141C452.21 141 451.762 141.448 451.762 142C451.762 142.552 452.21 143 452.762 143V141ZM460.857 143C461.41 143 461.857 142.552 461.857 142C461.857 141.448 461.41 141 460.857 141V143ZM468.953 141C468.4 141 467.953 141.448 467.953 142C467.953 142.552 468.4 143 468.953 143V141ZM133 143H137.048V141H133V143ZM145.143 143H153.238V141H145.143V143ZM161.333 143H169.429V141H161.333V143ZM177.524 143H185.619V141H177.524V143ZM193.714 143H201.81V141H193.714V143ZM209.905 143H218V141H209.905V143ZM226.095 143H234.19V141H226.095V143ZM242.286 143H250.381V141H242.286V143ZM258.476 143H266.571V141H258.476V143ZM274.667 143H282.762V141H274.667V143ZM290.857 143H298.952V141H290.857V143ZM307.048 143H315.143V141H307.048V143ZM323.238 143H331.333V141H323.238V143ZM339.429 143H347.524V141H339.429V143ZM355.619 143H363.714V141H355.619V143ZM371.81 143H379.905V141H371.81V143ZM388 143H396.095V141H388V143ZM404.191 143H412.286V141H404.191V143ZM420.381 143H428.476V141H420.381V143ZM436.572 143H444.667V141H436.572V143ZM452.762 143H460.857V141H452.762V143ZM468.953 143H473V141H468.953V143Z" fill="#D80027"/>
<path d="M188.202 119.488H195.626V121.168H188.202V119.488ZM190.058 109.744H192.298V111.76H190.058V109.744ZM184.25 110.768H198.394V114.064H196.122V112.48H186.426V114.064H184.25V110.768ZM188.138 112.976H195.754V116.768H188.138V115.136H193.434V114.608H188.138V112.976ZM188.234 117.28H197.082V121.552H194.762V118.944H188.234V117.28ZM186.842 112.976H189.05V121.552H186.842V112.976ZM186.026 107.376H191.002V109.184H186.026V107.376ZM192.65 107.376H198.714V109.184H192.65V107.376ZM185.962 106.16L188.122 106.752C187.482 108.208 186.41 109.696 185.45 110.624C185.002 110.256 184.09 109.648 183.562 109.376C184.538 108.608 185.466 107.36 185.962 106.16ZM192.602 106.16L194.81 106.704C194.234 108.08 193.242 109.424 192.314 110.256C191.834 109.904 190.842 109.408 190.282 109.168C191.274 108.464 192.154 107.296 192.602 106.16ZM186.458 108.784L188.426 108.256C188.826 108.8 189.306 109.568 189.514 110.08L187.434 110.672C187.274 110.176 186.842 109.36 186.458 108.784ZM193.802 108.848L195.85 108.32C196.298 108.848 196.842 109.6 197.098 110.112L194.938 110.688C194.746 110.208 194.234 109.408 193.802 108.848ZM207.802 111.68V112.656H212.026V111.68H207.802ZM207.802 108.912V109.872H212.026V108.912H207.802ZM205.706 106.96H214.234V114.608H205.706V106.96ZM205.658 115.696H214.378V117.776H205.658V115.696ZM204.602 118.928H214.906V121.024H204.602V118.928ZM199.722 107.152H205.21V109.296H199.722V107.152ZM199.866 111.744H204.922V113.872H199.866V111.744ZM199.53 117.792C200.954 117.44 203.082 116.8 205.034 116.176L205.434 118.384C203.626 119.008 201.642 119.648 200.042 120.16L199.53 117.792ZM201.37 108H203.578V117.776L201.37 118.112V108ZM209.002 107.76H210.938V113.712H211.162V119.92H208.778V113.712H209.002V107.76ZM215.994 111.008H230.474V113.04H215.994V111.008ZM217.37 107.888H226.458V109.888H217.37V107.888ZM220.314 116.704H227.242V118.432H220.314V116.704ZM220.314 119.152H227.242V121.088H220.314V119.152ZM220.954 106.32H223.258V112.16H220.954V106.32ZM228.01 106.736L230.01 107.76C226.922 112.208 222.01 115.456 216.794 117.328C216.522 116.832 215.834 115.872 215.418 115.408C220.634 113.808 225.306 110.784 228.01 106.736ZM219.002 114.096H228.714V121.472H226.282V115.984H221.322V121.536H219.002V114.096ZM238.794 107.424C238.682 107.904 238.554 108.512 238.458 108.96C238.282 109.776 238.09 110.576 237.946 111.296C237.434 113.568 236.058 118.448 234.458 121.024L231.93 120.016C233.866 117.392 235.034 113.184 235.482 111.152C235.786 109.616 235.946 108.288 235.914 107.12L238.794 107.424ZM244.314 108.896C245.29 110.336 246.602 113.344 247.066 114.896L244.586 116.032C244.202 114.176 243.13 111.344 241.978 109.872L244.314 108.896ZM231.898 110.576C232.522 110.624 233.13 110.592 233.77 110.576C235.098 110.544 238.01 110.208 239.258 110.208C241.098 110.208 242.314 111.072 242.314 113.472C242.314 115.344 242.106 117.968 241.418 119.376C240.874 120.528 239.93 120.928 238.634 120.928C238.01 120.928 237.258 120.832 236.682 120.704L236.266 118.16C236.858 118.32 237.818 118.496 238.218 118.496C238.73 118.496 239.098 118.32 239.306 117.888C239.706 117.088 239.898 115.216 239.898 113.728C239.898 112.56 239.418 112.416 238.426 112.416C237.546 112.416 234.922 112.752 234.09 112.88C233.578 112.96 232.65 113.088 232.122 113.184L231.898 110.576ZM243.754 106.736C244.154 107.328 244.714 108.368 245.002 108.928L243.482 109.568C243.146 108.912 242.682 107.968 242.25 107.344L243.754 106.736ZM245.722 105.968C246.138 106.576 246.714 107.6 246.986 108.144L245.482 108.784C245.162 108.128 244.65 107.184 244.218 106.576L245.722 105.968ZM248.618 120V108.08H251.53L254.49 113.792L255.658 116.432H255.738C255.594 115.168 255.354 113.456 255.354 112.032V108.08H258.074V120H255.162L252.218 114.256L251.05 111.648H250.97C251.098 112.976 251.338 114.608 251.338 116.048V120H248.618ZM260.837 120V108.08H268.437V110.464H263.701V113.072H267.765V115.456H263.701V120H260.837ZM272.797 120V110.464H269.581V108.08H278.893V110.464H275.661V120H272.797ZM283.512 112.512V118.544H281.352V114.656H279.864V112.512H283.512ZM283.512 117.648C284.056 118.672 285.08 119.104 286.6 119.168C288.68 119.264 292.712 119.216 295.144 119.008C294.904 119.52 294.568 120.528 294.456 121.168C292.296 121.28 288.712 121.312 286.6 121.216C284.744 121.136 283.528 120.704 282.584 119.472C282.024 120.08 281.432 120.656 280.68 121.36L279.608 119.136C280.232 118.72 280.952 118.192 281.576 117.648H283.512ZM279.656 107.84L281.496 106.688C282.28 107.456 283.24 108.528 283.64 109.312L281.656 110.608C281.32 109.84 280.424 108.672 279.656 107.84ZM284.36 112.752H294.232V114.4H284.36V112.752ZM283.912 115.216H294.728V116.896H283.912V115.216ZM286.36 112.064H288.536V116.032H286.36V112.064ZM289.96 112.064H292.168V116.032H289.96V112.064ZM284.824 108.608H286.888V108.16H284.056V106.736H288.824V110.048H284.824V108.608ZM284.264 108.608H286.152V110.096C286.152 110.464 286.216 110.512 286.568 110.512C286.728 110.512 287.32 110.512 287.512 110.512C287.8 110.512 287.864 110.432 287.928 110C288.264 110.24 289 110.48 289.512 110.576C289.32 111.696 288.824 112.016 287.752 112.016C287.416 112.016 286.6 112.016 286.264 112.016C284.696 112.016 284.264 111.584 284.264 110.112V108.608ZM290.072 108.608H292.184V108.16H289.24V106.736H294.152V110.048H290.072V108.608ZM289.528 108.608H291.416V110.096C291.416 110.464 291.48 110.512 291.832 110.512C291.992 110.512 292.584 110.512 292.776 110.512C293.064 110.512 293.128 110.432 293.192 110C293.528 110.24 294.264 110.48 294.776 110.576C294.584 111.696 294.088 112.016 293.016 112.016C292.68 112.016 291.864 112.016 291.528 112.016C289.96 112.016 289.528 111.584 289.528 110.112V108.608ZM289.704 117.552L291.416 116.608C292.568 117.136 294.024 117.888 294.824 118.4L292.408 119.232C291.832 118.768 290.728 118.064 289.704 117.552ZM286.968 116.64L289 117.344C288.168 118.112 286.792 118.816 285.672 119.248C285.288 118.848 284.472 118.176 283.992 117.856C285.128 117.568 286.312 117.12 286.968 116.64ZM307.736 106.256L309.416 108.192C305.896 109.04 301.352 109.408 297.416 109.536C297.352 108.944 297.064 108 296.84 107.488C300.728 107.344 305 106.928 307.736 106.256ZM297.064 110.816H309.816V113.04H297.064V110.816ZM295.944 114.528H310.792V116.8H295.944V114.528ZM302.168 108.832H304.6V118.88C304.6 120.176 304.296 120.768 303.432 121.12C302.568 121.472 301.336 121.536 299.736 121.52C299.592 120.864 299.144 119.824 298.792 119.216C299.896 119.264 301.272 119.264 301.656 119.264C302.024 119.264 302.168 119.152 302.168 118.832V108.832ZM319.368 107.056C319.256 107.632 319.032 108.608 318.568 109.792C318.264 110.48 317.88 111.296 317.528 111.84C317.848 111.744 318.664 111.68 319.112 111.68C320.488 111.68 321.528 112.496 321.528 114.096C321.528 114.976 321.592 116.672 321.608 117.68H319.304C319.368 116.992 319.4 115.792 319.4 114.912C319.4 113.84 318.76 113.552 318.184 113.552C317.368 113.552 316.376 114.08 315.832 114.624C315.352 115.12 314.888 115.696 314.344 116.432L312.28 114.88C314.2 113.168 315.512 111.52 316.248 109.52C316.552 108.672 316.76 107.696 316.808 106.848L319.368 107.056ZM313.032 108.4C313.832 108.528 315.048 108.592 315.912 108.592C317.992 108.592 320.952 108.48 323.32 108.064L323.304 110.304C321.032 110.608 317.672 110.752 315.784 110.752C315.144 110.752 313.912 110.72 313.032 110.64V108.4ZM325.96 113.328C325.4 113.488 324.392 113.856 323.784 114.096C322.792 114.48 321.384 115.04 319.912 115.776C318.536 116.496 317.944 117.072 317.944 117.824C317.944 118.496 318.44 118.768 319.944 118.768C321.368 118.768 323.192 118.576 324.6 118.272L324.52 120.768C323.544 120.912 321.48 121.056 319.896 121.056C317.272 121.056 315.384 120.368 315.384 118.24C315.384 115.856 317.832 114.48 319.768 113.52C321.224 112.768 322.056 112.448 322.968 112.032C323.672 111.728 324.328 111.424 325.016 111.088L325.96 113.328ZM335.288 108.896H343V111.104H334.184L335.288 108.896ZM337.448 112.432H342.568V114.544H337.448V112.432ZM337.432 115.984H342.776V118.144H337.432V115.984ZM336.264 109.632H338.664V121.52H336.264V109.632ZM335.512 106.448L337.752 107.04C336.856 109.664 335.4 112.4 333.928 114.08C333.56 113.648 332.664 112.816 332.168 112.448C333.56 111.04 334.808 108.736 335.512 106.448ZM331.064 106.384L333.32 107.104C332.296 109.84 330.6 112.864 328.824 114.704C328.616 114.128 327.976 112.784 327.576 112.192C328.968 110.8 330.296 108.592 331.064 106.384ZM329.496 110.976L331.848 108.624V108.64V121.504H329.496V110.976ZM346.36 112.352H349.896V114.464H346.36V112.352ZM349.016 112.352H351.272C351.272 112.352 351.256 112.912 351.256 113.168C351.208 116.432 351.128 117.904 350.744 118.416C350.392 118.88 350.024 119.04 349.544 119.136C349.112 119.216 348.44 119.232 347.704 119.232C347.672 118.544 347.416 117.632 347.08 117.056C347.576 117.104 348.024 117.12 348.28 117.12C348.488 117.12 348.632 117.072 348.76 116.912C348.936 116.656 348.984 115.6 349.016 112.688V112.352ZM353.992 107.44L355.4 106.048C356.216 106.48 357.336 107.184 357.896 107.712L356.392 109.264C355.912 108.72 354.824 107.952 353.992 107.44ZM355.656 111.44L358.008 112C356.68 116.16 354.344 119.504 351.224 121.472C350.888 120.976 350.04 120 349.544 119.552C352.52 117.936 354.616 115.056 355.656 111.44ZM346.472 108.544H358.792V110.832H346.472V108.544ZM344.904 108.544H347.352V113.36C347.352 115.84 347.08 119.568 345.624 121.76C345.224 121.296 344.168 120.432 343.64 120.16C344.824 118.272 344.904 115.44 344.904 113.344V108.544ZM351.32 106.336H353.768C353.608 112.4 355.032 119.04 356.392 119.04C356.712 119.04 356.904 118.24 356.984 116.288C357.512 116.832 358.328 117.376 358.952 117.616C358.6 120.736 357.848 121.408 356.2 121.408C352.584 121.408 351.352 113.424 351.32 106.336ZM365.576 107.184C365.464 107.936 365.368 108.912 365.336 109.616C365.256 111.296 365.144 114.752 365.144 116.512C365.144 118.048 366.024 118.528 367.112 118.528C369.592 118.528 371.272 117.072 372.44 115.28L374.2 117.44C373.208 118.976 370.824 121.184 367.096 121.184C364.296 121.184 362.552 119.92 362.552 117.12C362.552 115.104 362.696 110.816 362.696 109.616C362.696 108.752 362.616 107.872 362.456 107.152L365.576 107.184ZM385.128 106.928C385.08 107.264 385.032 107.712 385.016 108.096C384.968 109.024 384.952 111.36 384.952 112.704C384.952 114.272 385.224 117.216 385.224 118.592C385.224 120.096 384.008 121.12 381.896 121.12C379.192 121.12 377.8 120.048 377.8 118.272C377.8 116.56 379.336 115.344 381.88 115.344C385.48 115.344 388.088 117.024 389.48 118.192L388.088 120.352C386.52 118.848 384.232 117.328 381.56 117.328C380.664 117.328 380.152 117.68 380.152 118.128C380.152 118.656 380.68 118.928 381.512 118.928C382.328 118.928 382.776 118.704 382.776 117.888C382.776 117.088 382.584 114.336 382.584 112.704C382.584 111.12 382.616 108.88 382.616 108.096C382.616 107.792 382.584 107.28 382.504 106.928H385.128ZM378.2 108.288C379.4 108.48 381.144 108.64 382.072 108.64C384.328 108.64 386.408 108.544 388.888 108.144L388.872 110.352C387.336 110.576 384.648 110.768 382.088 110.768C381.128 110.768 379.336 110.624 378.248 110.48L378.2 108.288ZM378.104 111.776C379.096 111.968 381.128 112.08 381.864 112.08C385.176 112.08 387.208 111.872 389.112 111.648L389.096 113.92C386.856 114.16 385.224 114.256 381.832 114.256C380.984 114.256 379.144 114.176 378.136 114.048L378.104 111.776ZM402.04 106.976C401.992 107.28 401.928 108.272 401.912 108.56C401.864 109.616 401.896 112.976 401.912 114.256L399.48 113.552C399.48 112.4 399.48 109.392 399.416 108.576C399.352 107.808 399.288 107.216 399.24 106.976H402.04ZM392.68 108.832C395.192 108.848 399.528 108.736 401.272 108.736C402.728 108.736 405.416 108.704 406.376 108.72L406.344 111.008C405.288 110.96 403.56 110.912 401.192 110.912C398.2 110.912 395.16 111.04 392.744 111.152L392.68 108.832ZM401.496 113.616C401.496 116.496 400.568 117.92 398.504 117.92C397.336 117.92 395.672 116.912 395.672 114.848C395.672 112.912 397.224 111.728 399.08 111.728C401.32 111.728 402.52 113.392 402.52 115.456C402.52 117.504 401.192 120.288 397.192 121.376L395.128 119.312C397.736 118.784 400.12 117.904 400.12 115.008C400.12 114.192 399.64 113.76 399.016 113.76C398.52 113.76 397.992 114.064 397.992 114.8C397.992 115.376 398.504 115.776 399.016 115.776C399.64 115.776 400.312 115.232 399.656 113.232L401.496 113.616ZM408.846 116C410.334 116 411.518 117.2 411.518 118.672C411.518 120.144 410.334 121.344 408.846 121.344C407.374 121.344 406.174 120.144 406.174 118.672C406.174 117.2 407.374 116 408.846 116ZM408.846 120C409.582 120 410.174 119.408 410.174 118.672C410.174 117.936 409.582 117.344 408.846 117.344C408.126 117.344 407.518 117.936 407.518 118.672C407.518 119.408 408.126 120 408.846 120Z" fill="#183B56"/>
<rect x="482.5" y="0.5" width="722" height="305" rx="4.5" fill="white" stroke="#DDEAF3"/>
<path d="M547.163 272L550.955 260.16H553.739L557.531 272H555.051L553.355 265.84C553.003 264.608 552.667 263.232 552.331 261.968H552.267C551.947 263.248 551.611 264.608 551.259 265.84L549.563 272H547.163ZM549.515 268.96V267.136H555.147V268.96H549.515ZM558.741 272V263.056H560.645L560.837 264.24H560.885C561.653 263.472 562.581 262.832 563.797 262.832C565.717 262.832 566.565 264.176 566.565 266.416V272H564.213V266.72C564.213 265.312 563.813 264.848 562.949 264.848C562.213 264.848 561.749 265.2 561.093 265.84V272H558.741ZM572.127 275.888C570.031 275.888 568.399 275.168 568.399 273.6C568.399 272.848 568.847 272.192 569.679 271.744V271.664C569.215 271.36 568.863 270.88 568.863 270.144C568.863 269.472 569.311 268.864 569.871 268.48V268.416C569.247 267.968 568.655 267.12 568.655 266.064C568.655 263.952 570.383 262.832 572.271 262.832C572.783 262.832 573.263 262.912 573.631 263.056H576.863V264.784H575.327C575.567 265.088 575.743 265.584 575.743 266.128C575.743 268.16 574.207 269.168 572.271 269.168C571.919 269.168 571.519 269.104 571.119 268.96C570.879 269.184 570.735 269.376 570.735 269.744C570.735 270.208 571.103 270.48 572.143 270.48H573.679C575.839 270.48 577.023 271.136 577.023 272.72C577.023 274.528 575.119 275.888 572.127 275.888ZM572.271 267.728C573.055 267.728 573.679 267.12 573.679 266.064C573.679 265.008 573.071 264.432 572.271 264.432C571.487 264.432 570.863 265.008 570.863 266.064C570.863 267.12 571.487 267.728 572.271 267.728ZM572.495 274.4C573.839 274.4 574.751 273.808 574.751 273.12C574.751 272.48 574.223 272.304 573.263 272.304H572.175C571.631 272.304 571.263 272.272 570.943 272.176C570.527 272.512 570.351 272.864 570.351 273.232C570.351 273.984 571.183 274.4 572.495 274.4ZM582.051 272.224C579.539 272.224 577.587 270.496 577.587 267.536C577.587 264.624 579.635 262.832 581.747 262.832C584.227 262.832 585.491 264.624 585.491 267.104C585.491 267.552 585.443 267.968 585.395 268.192H579.859C580.067 269.664 581.027 270.416 582.355 270.416C583.075 270.416 583.715 270.192 584.371 269.792L585.155 271.248C584.275 271.856 583.155 272.224 582.051 272.224ZM579.827 266.624H583.491C583.491 265.408 582.947 264.64 581.795 264.64C580.851 264.64 580.019 265.312 579.827 266.624ZM589.652 272.224C588.004 272.224 587.444 271.152 587.444 269.488V259.248H589.796V269.584C589.796 270.144 590.036 270.32 590.26 270.32C590.34 270.32 590.404 270.32 590.564 270.288L590.852 272.032C590.58 272.128 590.212 272.224 589.652 272.224ZM601.396 272.224C598.18 272.224 595.716 270.08 595.716 266.128C595.716 262.224 598.244 259.952 601.396 259.952C603.092 259.952 604.276 260.688 605.044 261.456L603.796 262.976C603.204 262.416 602.532 261.984 601.476 261.984C599.492 261.984 598.132 263.52 598.132 266.048C598.132 268.64 599.316 270.176 601.636 270.176C602.212 270.176 602.788 270.016 603.124 269.744V267.408H601.012V265.472H605.236V270.8C604.436 271.6 603.028 272.224 601.396 272.224ZM611.488 272.224C608.976 272.224 607.024 270.496 607.024 267.536C607.024 264.624 609.072 262.832 611.184 262.832C613.664 262.832 614.928 264.624 614.928 267.104C614.928 267.552 614.88 267.968 614.832 268.192H609.296C609.504 269.664 610.464 270.416 611.792 270.416C612.512 270.416 613.152 270.192 613.808 269.792L614.592 271.248C613.712 271.856 612.592 272.224 611.488 272.224ZM609.264 266.624H612.928C612.928 265.408 612.384 264.64 611.232 264.64C610.288 264.64 609.456 265.312 609.264 266.624ZM620.625 272.224C618.369 272.224 616.321 270.496 616.321 267.536C616.321 264.56 618.369 262.832 620.625 262.832C622.865 262.832 624.913 264.56 624.913 267.536C624.913 270.496 622.865 272.224 620.625 272.224ZM620.625 270.32C621.841 270.32 622.513 269.216 622.513 267.536C622.513 265.84 621.841 264.752 620.625 264.752C619.393 264.752 618.721 265.84 618.721 267.536C618.721 269.216 619.393 270.32 620.625 270.32ZM626.897 272V263.056H628.801L628.993 264.64H629.041C629.681 263.456 630.657 262.832 631.585 262.832C632.065 262.832 632.353 262.896 632.625 263.024L632.225 265.04C631.905 264.96 631.665 264.896 631.281 264.896C630.593 264.896 629.745 265.376 629.249 266.672V272H626.897ZM636.752 275.888C634.656 275.888 633.024 275.168 633.024 273.6C633.024 272.848 633.472 272.192 634.304 271.744V271.664C633.84 271.36 633.488 270.88 633.488 270.144C633.488 269.472 633.936 268.864 634.496 268.48V268.416C633.872 267.968 633.28 267.12 633.28 266.064C633.28 263.952 635.008 262.832 636.896 262.832C637.408 262.832 637.888 262.912 638.256 263.056H641.488V264.784H639.952C640.192 265.088 640.368 265.584 640.368 266.128C640.368 268.16 638.832 269.168 636.896 269.168C636.544 269.168 636.144 269.104 635.744 268.96C635.504 269.184 635.36 269.376 635.36 269.744C635.36 270.208 635.728 270.48 636.768 270.48H638.304C640.464 270.48 641.648 271.136 641.648 272.72C641.648 274.528 639.744 275.888 636.752 275.888ZM636.896 267.728C637.68 267.728 638.304 267.12 638.304 266.064C638.304 265.008 637.696 264.432 636.896 264.432C636.112 264.432 635.488 265.008 635.488 266.064C635.488 267.12 636.112 267.728 636.896 267.728ZM637.12 274.4C638.464 274.4 639.376 273.808 639.376 273.12C639.376 272.48 638.848 272.304 637.888 272.304H636.8C636.256 272.304 635.888 272.272 635.568 272.176C635.152 272.512 634.976 272.864 634.976 273.232C634.976 273.984 635.808 274.4 637.12 274.4ZM646.676 272.224C644.164 272.224 642.212 270.496 642.212 267.536C642.212 264.624 644.26 262.832 646.372 262.832C648.852 262.832 650.116 264.624 650.116 267.104C650.116 267.552 650.068 267.968 650.02 268.192H644.484C644.692 269.664 645.652 270.416 646.98 270.416C647.7 270.416 648.34 270.192 648.996 269.792L649.78 271.248C648.9 271.856 647.78 272.224 646.676 272.224ZM644.452 266.624H648.116C648.116 265.408 647.572 264.64 646.42 264.64C645.476 264.64 644.644 265.312 644.452 266.624ZM655.886 272V260.16H658.286L661.726 266.48L662.926 269.04H663.006C662.878 267.808 662.686 266.224 662.686 264.88V260.16H664.942V272H662.526L659.102 265.664L657.902 263.136H657.822C657.934 264.4 658.126 265.888 658.126 267.264V272H655.886ZM667.87 272V260.16H675.166V262.128H670.238V265.232H674.446V267.2H670.238V272H667.87ZM679.581 272V262.128H676.237V260.16H685.293V262.128H681.949V272H679.581Z" fill="#183B56"/>
<rect x="522.5" y="30.5" width="187" height="206" rx="4.5" fill="#F2F7F9" stroke="#DDEAF3"/>
<path fill-rule="evenodd" clip-rule="evenodd" d="M640.635 102.001C644.528 102.001 647.714 105.187 647.714 109.08V158.636C647.714 162.529 644.528 165.715 640.635 165.715H591.079C587.186 165.715 584 162.529 584 158.636V109.08C584 105.187 587.186 102.001 591.079 102.001H640.635ZM612.312 149.829L603.463 139.175L591.074 155.103H640.629L624.701 133.865L612.312 149.829Z" fill="#DE1D43"/>
<path d="M782.039 272V270.576L787.559 262.128H782.567V260.16H790.471V261.584L784.951 270.016H790.535V272H782.039ZM794.308 272.224C792.708 272.224 791.668 271.104 791.668 269.568C791.668 267.664 793.22 266.656 796.82 266.256C796.772 265.376 796.404 264.72 795.3 264.72C794.468 264.72 793.652 265.072 792.836 265.568L791.988 264C793.044 263.36 794.308 262.832 795.732 262.832C798.004 262.832 799.172 264.176 799.172 266.784V272H797.252L797.076 271.056H797.012C796.228 271.728 795.332 272.224 794.308 272.224ZM795.076 270.384C795.748 270.384 796.244 270.08 796.82 269.52V267.712C794.628 267.984 793.908 268.576 793.908 269.392C793.908 270.08 794.388 270.384 795.076 270.384ZM801.569 272V263.056H803.921V272H801.569ZM802.737 261.6C801.921 261.6 801.377 261.088 801.377 260.304C801.377 259.536 801.921 259.04 802.737 259.04C803.553 259.04 804.113 259.536 804.113 260.304C804.113 261.088 803.553 261.6 802.737 261.6ZM806.428 272V263.056H808.332L808.524 264.24H808.572C809.34 263.472 810.268 262.832 811.484 262.832C813.404 262.832 814.252 264.176 814.252 266.416V272H811.9V266.72C811.9 265.312 811.5 264.848 810.636 264.848C809.9 264.848 809.436 265.2 808.78 265.84V272H806.428ZM820.495 272V260.16H824.607C827.087 260.16 829.055 261.024 829.055 263.744C829.055 266.384 827.087 267.536 824.607 267.536H822.863V272H820.495ZM822.863 265.664H824.383C825.919 265.664 826.751 265.008 826.751 263.744C826.751 262.48 825.919 262.048 824.383 262.048H822.863V265.664ZM826.927 272L824.175 266.928L825.823 265.44L829.567 272H826.927ZM834.688 272.224C832.432 272.224 830.384 270.496 830.384 267.536C830.384 264.56 832.432 262.832 834.688 262.832C836.928 262.832 838.976 264.56 838.976 267.536C838.976 270.496 836.928 272.224 834.688 272.224ZM834.688 270.32C835.904 270.32 836.576 269.216 836.576 267.536C836.576 265.84 835.904 264.752 834.688 264.752C833.456 264.752 832.784 265.84 832.784 267.536C832.784 269.216 833.456 270.32 834.688 270.32ZM843.363 272.224C842.163 272.224 840.835 271.712 839.955 270.976L841.011 269.488C841.827 270.112 842.579 270.48 843.411 270.48C844.307 270.48 844.723 270.08 844.723 269.52C844.723 268.864 843.779 268.544 842.851 268.192C841.715 267.744 840.451 267.072 840.451 265.552C840.451 263.968 841.731 262.832 843.779 262.832C845.075 262.832 846.099 263.36 846.835 263.936L845.763 265.344C845.139 264.896 844.499 264.576 843.843 264.576C843.027 264.576 842.659 264.928 842.659 265.456C842.659 266.096 843.475 266.352 844.435 266.688C845.619 267.136 846.915 267.744 846.915 269.392C846.915 270.976 845.683 272.224 843.363 272.224ZM851.285 272.224C850.085 272.224 848.757 271.712 847.877 270.976L848.933 269.488C849.749 270.112 850.501 270.48 851.333 270.48C852.229 270.48 852.645 270.08 852.645 269.52C852.645 268.864 851.701 268.544 850.773 268.192C849.637 267.744 848.373 267.072 848.373 265.552C848.373 263.968 849.653 262.832 851.701 262.832C852.997 262.832 854.021 263.36 854.757 263.936L853.685 265.344C853.061 264.896 852.421 264.576 851.765 264.576C850.949 264.576 850.581 264.928 850.581 265.456C850.581 266.096 851.397 266.352 852.357 266.688C853.541 267.136 854.837 267.744 854.837 269.392C854.837 270.976 853.605 272.224 851.285 272.224ZM860.551 272.224C858.039 272.224 856.087 270.496 856.087 267.536C856.087 264.624 858.135 262.832 860.247 262.832C862.727 262.832 863.991 264.624 863.991 267.104C863.991 267.552 863.943 267.968 863.895 268.192H858.359C858.567 269.664 859.527 270.416 860.855 270.416C861.575 270.416 862.215 270.192 862.871 269.792L863.655 271.248C862.775 271.856 861.655 272.224 860.551 272.224ZM858.327 266.624H861.991C861.991 265.408 861.447 264.64 860.295 264.64C859.351 264.64 858.519 265.312 858.327 266.624ZM865.944 272V263.056H867.848L868.04 264.64H868.088C868.728 263.456 869.704 262.832 870.632 262.832C871.112 262.832 871.4 262.896 871.672 263.024L871.272 265.04C870.952 264.96 870.712 264.896 870.328 264.896C869.64 264.896 868.792 265.376 868.296 266.672V272H865.944ZM876.745 272V260.16H879.145L882.585 266.48L883.785 269.04H883.865C883.737 267.808 883.545 266.224 883.545 264.88V260.16H885.801V272H883.385L879.961 265.664L878.761 263.136H878.681C878.793 264.4 878.985 265.888 878.985 267.264V272H876.745ZM888.729 272V260.16H896.025V262.128H891.097V265.232H895.305V267.2H891.097V272H888.729ZM900.441 272V262.128H897.097V260.16H906.153V262.128H902.809V272H900.441Z" fill="#183B56"/>
<rect x="750.5" y="30.5" width="187" height="206" rx="4.5" fill="#F2F7F9" stroke="#DDEAF3"/>
<path fill-rule="evenodd" clip-rule="evenodd" d="M868.635 102.001C872.528 102.001 875.714 105.187 875.714 109.08V158.636C875.714 162.529 872.528 165.715 868.635 165.715H819.079C815.186 165.715 812 162.529 812 158.636V109.08C812 105.187 815.186 102.001 819.079 102.001H868.635ZM840.312 149.829L831.463 139.175L819.074 155.103H868.629L852.701 133.865L840.312 149.829Z" fill="#DE1D43"/>
<path d="M1000.24 272.224C998.515 272.224 997.363 271.536 996.563 270.16L998.195 268.944C998.643 269.808 999.267 270.176 999.939 270.176C1000.99 270.176 1001.54 269.632 1001.54 268V260.16H1003.91V268.192C1003.91 270.416 1002.77 272.224 1000.24 272.224ZM1008.76 272.224C1007.16 272.224 1006.12 271.104 1006.12 269.568C1006.12 267.664 1007.67 266.656 1011.27 266.256C1011.22 265.376 1010.86 264.72 1009.75 264.72C1008.92 264.72 1008.1 265.072 1007.29 265.568L1006.44 264C1007.5 263.36 1008.76 262.832 1010.18 262.832C1012.46 262.832 1013.62 264.176 1013.62 266.784V272H1011.7L1011.53 271.056H1011.46C1010.68 271.728 1009.78 272.224 1008.76 272.224ZM1009.53 270.384C1010.2 270.384 1010.7 270.08 1011.27 269.52V267.712C1009.08 267.984 1008.36 268.576 1008.36 269.392C1008.36 270.08 1008.84 270.384 1009.53 270.384ZM1016.79 275.6C1016.28 275.6 1015.91 275.536 1015.57 275.424L1016.01 273.616C1016.17 273.664 1016.41 273.744 1016.63 273.744C1017.53 273.744 1018.04 273.168 1018.31 272.368L1018.45 271.84L1014.97 263.056H1017.35L1018.76 267.2C1019.03 268.016 1019.25 268.88 1019.53 269.744H1019.61C1019.8 268.896 1020.02 268.048 1020.23 267.2L1021.48 263.056H1023.73L1020.55 272.288C1019.77 274.384 1018.81 275.6 1016.79 275.6ZM1027.42 272.224C1025.77 272.224 1025.21 271.152 1025.21 269.488V259.248H1027.56V269.584C1027.56 270.144 1027.8 270.32 1028.03 270.32C1028.11 270.32 1028.17 270.32 1028.33 270.288L1028.62 272.032C1028.35 272.128 1027.98 272.224 1027.42 272.224ZM1034 272.224C1031.74 272.224 1029.7 270.496 1029.7 267.536C1029.7 264.56 1031.74 262.832 1034 262.832C1036.24 262.832 1038.29 264.56 1038.29 267.536C1038.29 270.496 1036.24 272.224 1034 272.224ZM1034 270.32C1035.22 270.32 1035.89 269.216 1035.89 267.536C1035.89 265.84 1035.22 264.752 1034 264.752C1032.77 264.752 1032.1 265.84 1032.1 267.536C1032.1 269.216 1032.77 270.32 1034 270.32ZM1040.27 272V263.056H1042.18L1042.37 264.24H1042.42C1043.18 263.472 1044.11 262.832 1045.33 262.832C1047.25 262.832 1048.1 264.176 1048.1 266.416V272H1045.74V266.72C1045.74 265.312 1045.34 264.848 1044.48 264.848C1043.74 264.848 1043.28 265.2 1042.62 265.84V272H1040.27ZM1056.42 272L1052.79 260.16H1055.28L1056.83 265.92C1057.2 267.248 1057.47 268.416 1057.84 269.76H1057.92C1058.31 268.416 1058.56 267.248 1058.91 265.92L1060.45 260.16H1062.87L1059.23 272H1056.42ZM1065.59 272.224C1063.99 272.224 1062.95 271.104 1062.95 269.568C1062.95 267.664 1064.5 266.656 1068.1 266.256C1068.05 265.376 1067.68 264.72 1066.58 264.72C1065.75 264.72 1064.93 265.072 1064.12 265.568L1063.27 264C1064.32 263.36 1065.59 262.832 1067.01 262.832C1069.28 262.832 1070.45 264.176 1070.45 266.784V272H1068.53L1068.36 271.056H1068.29C1067.51 271.728 1066.61 272.224 1065.59 272.224ZM1066.36 270.384C1067.03 270.384 1067.52 270.08 1068.1 269.52V267.712C1065.91 267.984 1065.19 268.576 1065.19 269.392C1065.19 270.08 1065.67 270.384 1066.36 270.384ZM1076.64 272.224C1074.18 272.224 1072.29 270.496 1072.29 267.536C1072.29 264.56 1074.42 262.832 1076.85 262.832C1077.97 262.832 1078.8 263.248 1079.46 263.824L1078.35 265.328C1077.91 264.944 1077.47 264.752 1076.99 264.752C1075.6 264.752 1074.69 265.84 1074.69 267.536C1074.69 269.216 1075.62 270.32 1076.9 270.32C1077.55 270.32 1078.16 270 1078.66 269.6L1079.59 271.152C1078.74 271.888 1077.63 272.224 1076.64 272.224ZM1084.52 272.224C1082.05 272.224 1080.16 270.496 1080.16 267.536C1080.16 264.56 1082.29 262.832 1084.72 262.832C1085.84 262.832 1086.68 263.248 1087.33 263.824L1086.23 265.328C1085.78 264.944 1085.35 264.752 1084.87 264.752C1083.48 264.752 1082.56 265.84 1082.56 267.536C1082.56 269.216 1083.49 270.32 1084.77 270.32C1085.43 270.32 1086.04 270 1086.53 269.6L1087.46 271.152C1086.61 271.888 1085.51 272.224 1084.52 272.224ZM1091.09 272.224C1089.49 272.224 1088.45 271.104 1088.45 269.568C1088.45 267.664 1090 266.656 1093.6 266.256C1093.55 265.376 1093.18 264.72 1092.08 264.72C1091.25 264.72 1090.43 265.072 1089.62 265.568L1088.77 264C1089.82 263.36 1091.09 262.832 1092.51 262.832C1094.78 262.832 1095.95 264.176 1095.95 266.784V272H1094.03L1093.86 271.056H1093.79C1093.01 271.728 1092.11 272.224 1091.09 272.224ZM1091.86 270.384C1092.53 270.384 1093.02 270.08 1093.6 269.52V267.712C1091.41 267.984 1090.69 268.576 1090.69 269.392C1090.69 270.08 1091.17 270.384 1091.86 270.384ZM1098.35 272V263.056H1100.25L1100.45 264.64H1100.49C1101.13 263.456 1102.11 262.832 1103.04 262.832C1103.52 262.832 1103.81 262.896 1104.08 263.024L1103.68 265.04C1103.36 264.96 1103.12 264.896 1102.73 264.896C1102.05 264.896 1101.2 265.376 1100.7 266.672V272H1098.35ZM1108.81 272.224C1106.56 272.224 1104.51 270.496 1104.51 267.536C1104.51 264.56 1106.56 262.832 1108.81 262.832C1111.05 262.832 1113.1 264.56 1113.1 267.536C1113.1 270.496 1111.05 272.224 1108.81 272.224ZM1108.81 270.32C1110.03 270.32 1110.7 269.216 1110.7 267.536C1110.7 265.84 1110.03 264.752 1108.81 264.752C1107.58 264.752 1106.91 265.84 1106.91 267.536C1106.91 269.216 1107.58 270.32 1108.81 270.32ZM1118.9 272V260.16H1121.3L1124.74 266.48L1125.94 269.04H1126.02C1125.89 267.808 1125.7 266.224 1125.7 264.88V260.16H1127.96V272H1125.54L1122.12 265.664L1120.92 263.136H1120.84C1120.95 264.4 1121.14 265.888 1121.14 267.264V272H1118.9ZM1130.89 272V260.16H1138.18V262.128H1133.25V265.232H1137.46V267.2H1133.25V272H1130.89ZM1142.6 272V262.128H1139.25V260.16H1148.31V262.128H1144.97V272H1142.6Z" fill="#183B56"/>
<rect x="978.5" y="30.5" width="187" height="206" rx="4.5" fill="#F2F7F9" stroke="#DDEAF3"/>
<path fill-rule="evenodd" clip-rule="evenodd" d="M1096.63 102.001C1100.53 102.001 1103.71 105.187 1103.71 109.08V158.636C1103.71 162.529 1100.53 165.715 1096.63 165.715H1047.08C1043.19 165.715 1040 162.529 1040 158.636V109.08C1040 105.187 1043.19 102.001 1047.08 102.001H1096.63ZM1068.31 149.829L1059.46 139.175L1047.07 155.103H1096.63L1080.7 133.865L1068.31 149.829Z" fill="#DE1D43"/>
</svg>
