<svg width="520" height="311" viewBox="0 0 520 311" fill="none" xmlns="http://www.w3.org/2000/svg">
<path d="M482 0H0V310.876H482V0Z" fill="#F2F7F9"/>
<path d="M467.669 39.0811H14.3281V291.805H467.669V39.0811Z" fill="white"/>
<rect x="40.8828" y="56.5161" width="134.481" height="134.481" rx="4.5" fill="#F2F7F9" stroke="#DDEAF3"/>
<path d="M482 0H0V19.9645H482V0Z" fill="#DE1D43"/>
<path d="M14.2583 14.2632C15.8336 14.2632 17.1104 12.9863 17.1104 11.4112C17.1104 9.83599 15.8336 8.55908 14.2583 8.55908C12.6832 8.55908 11.4062 9.83599 11.4062 11.4112C11.4062 12.9863 12.6832 14.2632 14.2583 14.2632Z" fill="white"/>
<path d="M28.516 14.2632C30.0913 14.2632 31.3681 12.9863 31.3681 11.4112C31.3681 9.83599 30.0913 8.55908 28.516 8.55908C26.9409 8.55908 25.6641 9.83599 25.6641 11.4112C25.6641 12.9863 26.9409 14.2632 28.516 14.2632Z" fill="white"/>
<path d="M42.7816 14.2632C44.3569 14.2632 45.6337 12.9863 45.6337 11.4112C45.6337 9.83599 44.3569 8.55908 42.7816 8.55908C41.2065 8.55908 39.9297 9.83599 39.9297 11.4112C39.9297 12.9863 41.2065 14.2632 42.7816 14.2632Z" fill="white"/>
<path fill-rule="evenodd" clip-rule="evenodd" d="M136.566 101.626C136.566 98.1488 133.721 95.3037 130.244 95.3037H85.9865C82.5092 95.3037 79.6641 98.1488 79.6641 101.626V145.883C79.6641 149.361 82.5092 152.206 85.9865 152.206H130.244C133.721 152.206 136.566 149.361 136.566 145.883V101.626ZM97.0485 128.498L104.952 138.014L116.016 123.756L130.241 142.724H85.9842L97.0485 128.498Z" fill="#DE1D43"/>
<rect x="191.5" y="66.438" width="257.935" height="11.7243" rx="1" fill="#BFD4E4"/>
<rect x="191.5" y="88.584" width="207.13" height="11.7243" rx="1" fill="#BFD4E4"/>
<path d="M192.799 132.335C192.981 128.849 193.625 126.651 195.557 123.963H190.895V122.241H197.783V123.501C195.431 126.371 195.053 128.401 194.885 132.335H192.799ZM199.615 135.317L199.181 134.197C200.273 133.791 200.875 133.063 200.861 132.279C200.819 132.279 200.777 132.279 200.735 132.279C200.063 132.279 199.447 131.845 199.447 131.061C199.447 130.319 200.049 129.843 200.777 129.843C201.729 129.843 202.261 130.599 202.261 131.873C202.261 133.511 201.309 134.757 199.615 135.317ZM207.122 132.531C204.994 132.531 203.608 130.669 203.608 127.239C203.608 123.823 204.994 122.045 207.122 122.045C209.25 122.045 210.622 123.837 210.622 127.239C210.622 130.669 209.25 132.531 207.122 132.531ZM207.122 130.921C208.018 130.921 208.676 130.053 208.676 127.239C208.676 124.439 208.018 123.655 207.122 123.655C206.226 123.655 205.554 124.439 205.554 127.239C205.554 130.053 206.226 130.921 207.122 130.921ZM215.366 132.531C213.238 132.531 211.852 130.669 211.852 127.239C211.852 123.823 213.238 122.045 215.366 122.045C217.494 122.045 218.866 123.837 218.866 127.239C218.866 130.669 217.494 132.531 215.366 132.531ZM215.366 130.921C216.262 130.921 216.92 130.053 216.92 127.239C216.92 124.439 216.262 123.655 215.366 123.655C214.47 123.655 213.798 124.439 213.798 127.239C213.798 130.053 214.47 130.921 215.366 130.921ZM223.61 132.531C221.482 132.531 220.096 130.669 220.096 127.239C220.096 123.823 221.482 122.045 223.61 122.045C225.738 122.045 227.11 123.837 227.11 127.239C227.11 130.669 225.738 132.531 223.61 132.531ZM223.61 130.921C224.506 130.921 225.164 130.053 225.164 127.239C225.164 124.439 224.506 123.655 223.61 123.655C222.714 123.655 222.042 124.439 222.042 127.239C222.042 130.053 222.714 130.921 223.61 130.921ZM228.999 132.335V121.961H235.355V123.697H231.071V126.091H234.711V127.827H231.071V130.599H235.509V132.335H228.999ZM239.67 132.335V123.697H236.758V121.961H244.682V123.697H241.742V132.335H239.67ZM246.362 132.335V121.961H248.434V126.049H252.354V121.961H254.412V132.335H252.354V127.855H248.434V132.335H246.362Z" fill="#DE1D43"/>
<path d="M219.331 260.908V252.076H220.759L223.699 257.272L224.623 259.132H224.683C224.599 258.232 224.491 257.152 224.491 256.204V252.076H225.823V260.908H224.383L221.467 255.712L220.543 253.852H220.483C220.543 254.776 220.663 255.784 220.663 256.756V260.908H219.331ZM228.144 260.908V252.076H233.388V253.252H229.548V255.94H232.812V257.116H229.548V260.908H228.144ZM236.741 260.908V253.252H234.149V252.076H240.737V253.252H238.145V260.908H236.741ZM246.428 257.68H250.94V258.508H246.428V257.68ZM245.156 251.668H252.296V252.508H245.156V251.668ZM245.456 253.156H251.984V253.948H245.456V253.156ZM244.784 254.632H252.668V255.472H244.784V254.632ZM246.44 259.252H250.964V260.08H246.44V259.252ZM245.624 256.072H250.904V256.924H246.68V261.916H245.624V256.072ZM250.7 256.072H251.78V260.752C251.78 261.28 251.672 261.568 251.288 261.724C250.916 261.892 250.352 261.904 249.5 261.892C249.464 261.616 249.32 261.196 249.188 260.92C249.74 260.944 250.316 260.944 250.484 260.932C250.64 260.932 250.7 260.884 250.7 260.74V256.072ZM248.12 250.78H249.248V254.908H248.12V250.78ZM242.9 250.78H243.932V261.916H242.9V250.78ZM241.916 253.12L242.732 253.228C242.696 254.2 242.504 255.616 242.24 256.528L241.388 256.24C241.664 255.412 241.844 254.08 241.916 253.12ZM243.908 252.784L244.628 252.484C244.892 253.036 245.192 253.756 245.312 254.2L244.544 254.572C244.436 254.104 244.148 253.348 243.908 252.784ZM259.844 255.424H263.66V256.336H259.844V255.424ZM259.28 251.32H263.624V252.328H260.312V261.928H259.28V251.32ZM263.06 251.32H264.116V253.612C264.116 254.128 264.008 254.428 263.6 254.584C263.18 254.74 262.568 254.752 261.656 254.752C261.608 254.452 261.464 254.044 261.32 253.768C262.004 253.792 262.64 253.792 262.82 253.78C263.012 253.768 263.06 253.732 263.06 253.6V251.32ZM261.164 256.072C261.788 258.196 263.084 260.152 264.836 261.016C264.584 261.232 264.248 261.64 264.08 261.928C262.256 260.872 260.996 258.736 260.288 256.288L261.164 256.072ZM263.324 255.424H263.516L263.708 255.376L264.404 255.628C263.948 258.28 262.796 260.632 260.924 261.94C260.756 261.688 260.42 261.364 260.168 261.172C261.908 260.008 262.976 257.836 263.324 255.652V255.424ZM253.988 251.944H258.512V252.904H253.988V251.944ZM253.88 258.592H258.656V259.564H253.88V258.592ZM253.556 253.936H258.968V254.908H253.556V253.936ZM253.76 256.48H258.8V257.452H253.76V256.48ZM255.776 250.804H256.832V254.296H255.776V250.804ZM255.776 256.888H256.832V261.892H255.776V256.888ZM257.396 254.8L258.356 255.04C258.116 255.604 257.888 256.192 257.684 256.588L256.856 256.36C257.048 255.928 257.288 255.256 257.396 254.8ZM254.36 255.04L255.212 254.824C255.464 255.304 255.692 255.964 255.74 256.36L254.852 256.612C254.792 256.204 254.588 255.544 254.36 255.04Z" fill="#183B56"/>
<rect x="41.6875" y="224.065" width="402.535" height="1.3027" fill="#DDEAF3"/>
<rect x="320.461" y="173.26" width="123.757" height="18.2378" rx="3" fill="#DE1D43"/>
<rect opacity="0.2" width="66.4378" height="6.51351" rx="3" transform="matrix(1 0 0 -1 349.117 186.287)" fill="black"/>
<rect x="191.492" y="173.26" width="123.757" height="18.2378" rx="3" fill="#DE1D43"/>
<rect opacity="0.2" width="66.4378" height="6.51351" rx="3" transform="matrix(1 0 0 -1 220.148 186.287)" fill="black"/>
<rect width="136" height="39" rx="7" transform="matrix(-1 0 0 1 519.5 147)" fill="#FFDDDD"/>
<path d="M369 182L388.5 175L391.5 182H369Z" fill="#FFDDDD"/>
<path d="M422.93 162.444C421.782 164.138 419.584 166.224 417.246 167.638C417.078 167.33 416.7 166.868 416.406 166.588C418.814 165.23 421.138 162.934 422.202 161.128H423.532C425.016 163.256 427.424 165.328 429.622 166.434C429.286 166.756 428.978 167.19 428.74 167.582C426.584 166.308 424.176 164.18 422.93 162.444ZM419.948 165.552H426.01V166.784H419.948V165.552ZM418.086 168.366H426.416V169.626H418.086V168.366ZM426.178 168.366H426.374L426.612 168.296L427.662 168.604C426.99 170.242 425.926 172.482 425.058 174.232L423.658 173.854C424.568 172.118 425.66 169.766 426.178 168.52V168.366ZM435.754 162.346H443.16V163.312H435.754V162.346ZM435.474 165.706H443.44V166.672H435.474V165.706ZM435.418 170.914H443.482V171.894H435.418V170.914ZM436.104 164.012H442.936V164.936H436.104V164.012ZM437.378 161.198H438.54V166.112H437.378V161.198ZM440.346 161.198H441.522V166.112H440.346V161.198ZM438.848 166.14H440.01V171.208H438.848V166.14ZM441.508 167.358H442.726V172.902C442.726 173.504 442.6 173.812 442.194 173.994C441.76 174.176 441.116 174.176 440.15 174.176C440.094 173.868 439.94 173.406 439.786 173.112C440.444 173.126 441.088 173.126 441.27 173.126C441.452 173.112 441.508 173.07 441.508 172.902V167.358ZM436.244 167.358H442.026V168.324H437.434V174.204H436.244V167.358ZM436.846 169.164H442.012V170.032H436.846V169.164ZM431.792 170.858L432.968 171.124C432.618 172.286 432.002 173.448 431.358 174.204C431.134 174.022 430.644 173.686 430.364 173.532C430.994 172.86 431.526 171.852 431.792 170.858ZM433.5 171.264L434.494 170.83C434.956 171.53 435.46 172.454 435.684 173.056L434.648 173.546C434.438 172.944 433.948 171.978 433.5 171.264ZM432.254 165.37V166.966H434.046V165.37H432.254ZM432.254 167.96V169.57H434.046V167.96H432.254ZM432.254 162.794V164.362H434.046V162.794H432.254ZM431.106 161.716H435.208V170.648H431.106V161.716ZM447.192 162.01H451.154V163.354H447.192V162.01ZM450.496 162.01H451.854C451.854 164.586 452.204 169.822 457.58 173C457.272 173.238 456.74 173.812 456.502 174.134C451.028 170.83 450.496 164.74 450.496 162.01ZM450.006 164.894L451.518 165.174C450.524 169.388 448.676 172.37 445.652 174.162C445.414 173.882 444.798 173.336 444.448 173.084C447.472 171.53 449.194 168.744 450.006 164.894ZM466.932 161.828C466.904 162.024 466.862 162.654 466.848 162.85C466.82 163.76 466.848 166.532 466.862 167.652L465.49 167.092C465.49 166.364 465.49 163.62 465.434 162.864C465.406 162.402 465.35 161.968 465.322 161.828H466.932ZM459.288 163.69C461.262 163.676 464.846 163.564 466.834 163.564C468.416 163.564 470.32 163.55 471.034 163.564L471.02 164.866C470.194 164.824 468.864 164.796 466.806 164.796C464.342 164.796 461.43 164.894 459.316 165.034L459.288 163.69ZM466.736 167.792C466.736 169.85 465.882 170.872 464.454 170.872C463.32 170.872 462.102 170.032 462.102 168.422C462.102 166.952 463.306 165.916 464.72 165.916C466.442 165.916 467.324 167.19 467.324 168.856C467.324 170.718 466.344 172.916 463.012 173.882L461.836 172.72C464.314 172.16 465.966 171.04 465.966 168.674C465.966 167.568 465.406 167.078 464.706 167.078C464.048 167.078 463.432 167.568 463.432 168.408C463.432 169.178 464.02 169.64 464.706 169.64C465.49 169.64 466.05 168.982 465.728 167.414L466.736 167.792ZM475.22 162.542C475.57 162.584 476.004 162.598 476.326 162.598C477.068 162.598 480.246 162.514 481.016 162.444C481.506 162.402 481.758 162.36 481.912 162.304L482.668 163.312C482.388 163.508 482.08 163.69 481.8 163.914C481.072 164.446 479.364 165.902 478.356 166.714C478.93 166.546 479.49 166.49 480.036 166.49C482.388 166.49 484.11 167.918 484.11 169.878C484.11 172.118 482.332 173.7 479.182 173.7C477.264 173.7 475.962 172.846 475.962 171.572C475.962 170.536 476.9 169.598 478.272 169.598C480.162 169.598 481.156 170.9 481.226 172.37L479.938 172.566C479.882 171.446 479.266 170.662 478.272 170.662C477.684 170.662 477.264 171.026 477.264 171.46C477.264 172.062 477.95 172.454 478.93 172.454C481.31 172.454 482.682 171.502 482.682 169.864C482.682 168.534 481.394 167.582 479.644 167.582C477.39 167.582 476.074 168.632 474.422 170.396L473.414 169.36C474.506 168.478 476.256 167.008 477.068 166.322C477.852 165.678 479.476 164.334 480.176 163.718C479.448 163.746 477.026 163.844 476.284 163.886C475.948 163.914 475.57 163.942 475.262 163.984L475.22 162.542Z" fill="#DE1D43"/>
</svg>
