<svg width="507" height="313" viewBox="0 0 507 313" fill="none" xmlns="http://www.w3.org/2000/svg">
<path d="M482 0H0V310.876H482V0Z" fill="#F2F7F9"/>
<path d="M467.669 39.0811H14.3281V291.805H467.669V39.0811Z" fill="white"/>
<path d="M482 0H0V19.9645H482V0Z" fill="#DE1D43"/>
<path d="M14.2583 14.2632C15.8336 14.2632 17.1104 12.9863 17.1104 11.4112C17.1104 9.83599 15.8336 8.55908 14.2583 8.55908C12.6832 8.55908 11.4062 9.83599 11.4062 11.4112C11.4062 12.9863 12.6832 14.2632 14.2583 14.2632Z" fill="white"/>
<path d="M28.516 14.2632C30.0913 14.2632 31.3681 12.9863 31.3681 11.4112C31.3681 9.83599 30.0913 8.55908 28.516 8.55908C26.9409 8.55908 25.6641 9.83599 25.6641 11.4112C25.6641 12.9863 26.9409 14.2632 28.516 14.2632Z" fill="white"/>
<path d="M42.7816 14.2632C44.3569 14.2632 45.6337 12.9863 45.6337 11.4112C45.6337 9.83599 44.3569 8.55908 42.7816 8.55908C41.2065 8.55908 39.9297 9.83599 39.9297 11.4112C39.9297 12.9863 41.2065 14.2632 42.7816 14.2632Z" fill="white"/>
<rect x="56.5156" y="56.5161" width="104.519" height="99.3081" rx="4.5" fill="#F2F7F9" stroke="#DDEAF3"/>
<path fill-rule="evenodd" clip-rule="evenodd" d="M127.524 69.043C130.47 69.043 132.88 71.453 132.88 74.3985V111.887C132.88 114.833 130.47 117.243 127.524 117.243H90.0352C87.0897 117.243 84.6797 114.833 84.6797 111.887V74.3985C84.6797 71.453 87.0897 69.043 90.0352 69.043H127.524ZM106.098 105.226L99.4035 97.1656L90.0312 109.216H127.52L115.47 93.1489L106.098 105.226Z" fill="#DE1D43"/>
<rect x="69.0391" y="127.665" width="80.7676" height="6.51351" rx="1" fill="#BFD4E4"/>
<rect x="69.0391" y="139.389" width="65.1351" height="6.51351" rx="1" fill="#BFD4E4"/>
<rect x="188.094" y="56.5161" width="104.519" height="99.3081" rx="4.5" fill="#F2F7F9" stroke="#DDEAF3"/>
<path fill-rule="evenodd" clip-rule="evenodd" d="M259.094 69.043C262.04 69.043 264.45 71.453 264.45 74.3985V111.887C264.45 114.833 262.04 117.243 259.094 117.243H221.606C218.66 117.243 216.25 114.833 216.25 111.887V74.3985C216.25 71.453 218.66 69.043 221.606 69.043H259.094ZM237.668 105.226L230.974 97.1656L221.602 109.216H259.09L247.04 93.1489L237.668 105.226Z" fill="#DE1D43"/>
<rect x="200.617" y="127.665" width="80.7676" height="6.51351" rx="1" fill="#BFD4E4"/>
<rect x="200.617" y="139.389" width="65.1351" height="6.51351" rx="1" fill="#BFD4E4"/>
<rect x="319.664" y="56.5161" width="104.519" height="99.3081" rx="4.5" fill="#F2F7F9" stroke="#DDEAF3"/>
<path fill-rule="evenodd" clip-rule="evenodd" d="M390.673 69.043C393.618 69.043 396.028 71.453 396.028 74.3985V111.887C396.028 114.833 393.618 117.243 390.673 117.243H353.184C350.238 117.243 347.828 114.833 347.828 111.887V74.3985C347.828 71.453 350.238 69.043 353.184 69.043H390.673ZM369.246 105.226L362.552 97.1656L353.18 109.216H390.669L378.619 93.1489L369.246 105.226Z" fill="#DE1D43"/>
<rect x="332.195" y="127.665" width="80.7676" height="6.51351" rx="1" fill="#BFD4E4"/>
<rect x="332.195" y="139.389" width="65.1351" height="6.51351" rx="1" fill="#BFD4E4"/>
<rect x="188.094" y="175.062" width="104.519" height="99.3081" rx="4.5" fill="#F2F7F9" stroke="#DDEAF3"/>
<path fill-rule="evenodd" clip-rule="evenodd" d="M259.094 187.589C262.04 187.589 264.45 189.999 264.45 192.945V230.434C264.45 233.379 262.04 235.789 259.094 235.789H221.606C218.66 235.789 216.25 233.379 216.25 230.434V192.945C216.25 189.999 218.66 187.589 221.606 187.589H259.094ZM237.668 223.772L230.974 215.712L221.602 227.762H259.09L247.04 211.695L237.668 223.772Z" fill="#DE1D43"/>
<rect x="200.617" y="246.211" width="80.7676" height="6.51351" rx="1" fill="#BFD4E4"/>
<rect x="200.617" y="257.935" width="65.1351" height="6.51351" rx="1" fill="#BFD4E4"/>
<rect x="56.5156" y="175.062" width="104.519" height="99.3081" rx="4.5" fill="#F2F7F9" stroke="#DDEAF3"/>
<path fill-rule="evenodd" clip-rule="evenodd" d="M127.524 187.589C130.47 187.589 132.88 189.999 132.88 192.945V230.434C132.88 233.379 130.47 235.789 127.524 235.789H90.0352C87.0897 235.789 84.6797 233.379 84.6797 230.434V192.945C84.6797 189.999 87.0897 187.589 90.0352 187.589H127.524ZM106.098 223.772L99.4035 215.712L90.0312 227.762H127.52L115.47 211.695L106.098 223.772Z" fill="#DE1D43"/>
<rect x="69.0391" y="246.211" width="80.7676" height="6.51351" rx="1" fill="#BFD4E4"/>
<rect x="69.0391" y="257.935" width="65.1351" height="6.51351" rx="1" fill="#BFD4E4"/>
<rect x="319.664" y="175.062" width="104.519" height="99.3081" rx="4.5" fill="#F2F7F9" stroke="#DDEAF3"/>
<path fill-rule="evenodd" clip-rule="evenodd" d="M390.673 187.589C393.618 187.589 396.028 189.999 396.028 192.945V230.434C396.028 233.379 393.618 235.789 390.673 235.789H353.184C350.238 235.789 347.828 233.379 347.828 230.434V192.945C347.828 189.999 350.238 187.589 353.184 187.589H390.673ZM369.246 223.772L362.552 215.712L353.18 227.762H390.669L378.619 211.695L369.246 223.772Z" fill="#DE1D43"/>
<rect x="332.195" y="246.211" width="80.7676" height="6.51351" rx="1" fill="#BFD4E4"/>
<rect x="332.195" y="257.935" width="65.1351" height="6.51351" rx="1" fill="#BFD4E4"/>
<circle cx="477" cy="283" r="30" fill="#DE1D43"/>
<path d="M488.25 294.25L482.812 288.812M475.75 275.5C479.202 275.5 482 278.298 482 281.75M485.75 281.75C485.75 287.273 481.273 291.75 475.75 291.75C470.227 291.75 465.75 287.273 465.75 281.75C465.75 276.227 470.227 271.75 475.75 271.75C481.273 271.75 485.75 276.227 485.75 281.75Z" stroke="white" stroke-width="2.5" stroke-linecap="round" stroke-linejoin="round"/>
</svg>
