<svg xmlns="http://www.w3.org/2000/svg" width="540" height="324" viewBox="0 0 540 324" fill="none">
<path d="M501.02 0.373047H0V323.516H501.02V0.373047Z" fill="#F2F7F9"/>
<path d="M486.12 40.9961H14.8906V303.693H486.12V40.9961Z" fill="white"/>
<rect x="42.4766" y="59.0996" width="139.827" height="139.827" rx="4.5" fill="#F2F7F9" stroke="#DDEAF3"/>
<path d="M501.02 0.373047H0V21.1254H501.02V0.373047Z" fill="#DE1D43"/>
<path d="M14.824 15.1992C16.4614 15.1992 17.7887 13.8719 17.7887 12.2346C17.7887 10.5973 16.4614 9.27002 14.824 9.27002C13.1868 9.27002 11.8594 10.5973 11.8594 12.2346C11.8594 13.8719 13.1868 15.1992 14.824 15.1992Z" fill="white"/>
<path d="M29.6442 15.1992C31.2816 15.1992 32.6088 13.8719 32.6088 12.2346C32.6088 10.5973 31.2816 9.27002 29.6442 9.27002C28.0069 9.27002 26.6797 10.5973 26.6797 12.2346C26.6797 13.8719 28.0069 15.1992 29.6442 15.1992Z" fill="white"/>
<path d="M44.4723 15.1992C46.1097 15.1992 47.4369 13.8719 47.4369 12.2346C47.4369 10.5973 46.1097 9.27002 44.4723 9.27002C42.835 9.27002 41.5078 10.5973 41.5078 12.2346C41.5078 13.8719 42.835 15.1992 44.4723 15.1992Z" fill="white"/>
<path fill-rule="evenodd" clip-rule="evenodd" d="M141.96 106.009C141.96 102.395 139.003 99.4375 135.388 99.4375H89.3844C85.7699 99.4375 82.8125 102.395 82.8125 106.009V152.013C82.8125 155.628 85.7699 158.585 89.3844 158.585H135.388C139.003 158.585 141.96 155.628 141.96 152.013V106.009ZM100.884 133.942L109.099 143.832L120.6 129.013L135.386 148.729H89.3828L100.884 133.942Z" fill="#DE1D43"/>
<rect x="199.055" y="69.4326" width="268.114" height="12.187" rx="1" fill="#BFD4E4"/>
<rect x="199.055" y="92.4526" width="215.303" height="12.187" rx="1" fill="#BFD4E4"/>
<path d="M200.307 138.18C200.489 134.694 201.133 132.496 203.065 129.808H198.403V128.086H205.291V129.346C202.939 132.216 202.561 134.246 202.393 138.18H200.307ZM207.123 141.162L206.689 140.042C207.781 139.636 208.383 138.908 208.369 138.124C208.327 138.124 208.285 138.124 208.243 138.124C207.571 138.124 206.955 137.69 206.955 136.906C206.955 136.164 207.557 135.688 208.285 135.688C209.237 135.688 209.769 136.444 209.769 137.718C209.769 139.356 208.817 140.602 207.123 141.162ZM214.63 138.376C212.502 138.376 211.116 136.514 211.116 133.084C211.116 129.668 212.502 127.89 214.63 127.89C216.758 127.89 218.13 129.682 218.13 133.084C218.13 136.514 216.758 138.376 214.63 138.376ZM214.63 136.766C215.526 136.766 216.184 135.898 216.184 133.084C216.184 130.284 215.526 129.5 214.63 129.5C213.734 129.5 213.062 130.284 213.062 133.084C213.062 135.898 213.734 136.766 214.63 136.766ZM222.874 138.376C220.746 138.376 219.36 136.514 219.36 133.084C219.36 129.668 220.746 127.89 222.874 127.89C225.002 127.89 226.374 129.682 226.374 133.084C226.374 136.514 225.002 138.376 222.874 138.376ZM222.874 136.766C223.77 136.766 224.428 135.898 224.428 133.084C224.428 130.284 223.77 129.5 222.874 129.5C221.978 129.5 221.306 130.284 221.306 133.084C221.306 135.898 221.978 136.766 222.874 136.766ZM231.118 138.376C228.99 138.376 227.604 136.514 227.604 133.084C227.604 129.668 228.99 127.89 231.118 127.89C233.246 127.89 234.618 129.682 234.618 133.084C234.618 136.514 233.246 138.376 231.118 138.376ZM231.118 136.766C232.014 136.766 232.672 135.898 232.672 133.084C232.672 130.284 232.014 129.5 231.118 129.5C230.222 129.5 229.55 130.284 229.55 133.084C229.55 135.898 230.222 136.766 231.118 136.766ZM236.506 138.18V127.806H242.862V129.542H238.578V131.936H242.218V133.672H238.578V136.444H243.016V138.18H236.506ZM247.178 138.18V129.542H244.266V127.806H252.19V129.542H249.25V138.18H247.178ZM253.87 138.18V127.806H255.942V131.894H259.862V127.806H261.92V138.18H259.862V133.7H255.942V138.18H253.87Z" fill="#DE1D43"/>
<path d="M228.885 271.946V263.102H230.313L233.241 268.298L234.165 270.17H234.225C234.153 269.258 234.045 268.19 234.045 267.23V263.102H235.365V271.946H233.937L231.009 266.738L230.085 264.89H230.025C230.097 265.802 230.205 266.822 230.205 267.782V271.946H228.885ZM237.697 271.946V263.102H242.929V264.278H239.089V266.978H242.353V268.142H239.089V271.946H237.697ZM246.294 271.946V264.278H243.702V263.102H250.29V264.278H247.686V271.946H246.294ZM251.842 267.554L251.002 267.29C251.254 266.474 251.446 265.142 251.518 264.206L252.322 264.302C252.286 265.25 252.094 266.654 251.842 267.554ZM254.878 265.262L254.122 265.622C254.002 265.202 253.75 264.494 253.51 263.942V272.882H252.49V261.89H253.51V263.846L254.206 263.57C254.446 264.11 254.758 264.818 254.878 265.262ZM256.222 270.266H260.194V269.522H256.222V270.266ZM260.194 267.95H256.222V268.694H260.194V267.95ZM261.25 267.11V271.742C261.25 272.246 261.142 272.534 260.782 272.69C260.41 272.846 259.846 272.858 259.018 272.858C258.97 272.582 258.826 272.162 258.694 271.898C259.246 271.934 259.822 271.922 259.978 271.922C260.146 271.91 260.194 271.862 260.194 271.718V271.07H256.222V272.882H255.19V267.11H261.25ZM258.742 265.694H262.126V266.522H254.35V265.694H257.638V264.998H254.998V264.218H257.638V263.594H254.71V262.766H257.638V261.878H258.742V262.766H261.778V263.594H258.742V264.218H261.466V264.998H258.742V265.694ZM266.83 267.506L266.422 267.398C266.59 266.99 266.806 266.39 266.926 265.958H264.85C265.066 266.426 265.27 267.014 265.318 267.398L264.922 267.506H266.83ZM266.398 263.966V265.01H268.498V265.958H267.382L267.898 266.09C267.694 266.594 267.478 267.122 267.286 267.506H268.354V268.466H266.398V269.594H268.198V270.542H266.398V272.858H265.354V270.542H263.47V269.594H265.354V268.466H263.362V267.506H264.406C264.346 267.098 264.166 266.534 263.95 266.09L264.442 265.958H263.158V265.01H265.354V263.966H263.59V263.03H265.354V261.902H266.398V263.03H268.054V263.966H266.398ZM269.83 267.374V272.054C270.382 271.67 270.85 271.178 271.258 270.614C270.646 269.666 270.178 268.562 269.83 267.374ZM272.686 267.374H270.766C271.03 268.19 271.39 268.97 271.834 269.678C272.218 268.958 272.494 268.178 272.686 267.374ZM273.19 266.414L273.874 266.666C273.634 268.094 273.178 269.438 272.518 270.578C273.034 271.178 273.634 271.67 274.306 272.006C274.066 272.21 273.73 272.618 273.562 272.894C272.95 272.534 272.398 272.054 271.906 271.478C271.486 272.03 270.994 272.51 270.442 272.906C270.298 272.702 270.058 272.438 269.83 272.258V272.894H268.822V262.406H273.598V264.674C273.598 265.19 273.49 265.478 273.07 265.634C272.674 265.79 272.062 265.79 271.162 265.79C271.114 265.502 270.97 265.094 270.826 264.83C271.51 264.854 272.146 264.854 272.326 264.842C272.506 264.83 272.554 264.794 272.554 264.662V263.39H269.83V266.462H273.01L273.19 266.414Z" fill="#183B56"/>
<rect x="43.3359" y="233.28" width="418.42" height="1.35411" fill="#DDEAF3"/>
<rect x="333.102" y="180.47" width="128.64" height="18.9575" rx="3" fill="#DE1D43"/>
<rect opacity="0.2" width="69.0595" height="6.77054" rx="3" transform="matrix(1 0 0 -1 362.891 194.011)" fill="black"/>
<rect x="199.047" y="180.47" width="128.64" height="18.9575" rx="3" fill="#DE1D43"/>
<rect opacity="0.2" width="69.0595" height="6.77054" rx="3" transform="matrix(1 0 0 -1 228.836 194.011)" fill="black"/>
<rect width="141.367" height="40.539" rx="7" transform="matrix(-1 0 0 1 540 153.174)" fill="#FFDDDD"/>
<path d="M383.557 189.555L403.827 182.279L406.945 189.555H383.557Z" fill="#FFDDDD"/>
<path d="M441.34 180.49V170.172H444.532C446.646 170.172 448.172 170.858 448.172 172.72C448.172 173.7 447.626 174.638 446.702 174.946V175.016C447.878 175.268 448.732 176.066 448.732 177.466C448.732 179.51 447.066 180.49 444.784 180.49H441.34ZM442.964 174.484H444.35C445.918 174.484 446.576 173.896 446.576 172.93C446.576 171.852 445.848 171.446 444.392 171.446H442.964V174.484ZM442.964 179.216H444.602C446.212 179.216 447.136 178.642 447.136 177.382C447.136 176.22 446.24 175.702 444.602 175.702H442.964V179.216ZM452.806 180.672C451.154 180.672 450.44 179.594 450.44 177.634V172.79H452.05V177.438C452.05 178.754 452.428 179.286 453.338 179.286C454.052 179.286 454.542 178.95 455.186 178.138V172.79H456.796V180.49H455.48L455.354 179.328H455.312C454.612 180.14 453.856 180.672 452.806 180.672ZM459.569 183.71C459.177 183.71 458.869 183.654 458.603 183.556L458.911 182.296C459.051 182.338 459.275 182.408 459.471 182.408C460.311 182.408 460.801 181.792 461.081 180.966L461.235 180.434L458.183 172.79H459.835L461.263 176.752C461.487 177.438 461.725 178.208 461.963 178.922H462.033C462.229 178.222 462.439 177.452 462.635 176.752L463.867 172.79H465.435L462.607 180.952C462.005 182.604 461.193 183.71 459.569 183.71ZM469.979 180.49V172.79H471.295L471.421 173.854H471.463C472.177 173.168 472.961 172.594 474.011 172.594C475.649 172.594 476.377 173.686 476.377 175.646V180.49H474.767V175.842C474.767 174.512 474.375 173.98 473.465 173.98C472.751 173.98 472.261 174.344 471.589 175.03V180.49H469.979ZM481.795 180.672C479.891 180.672 478.169 179.202 478.169 176.64C478.169 174.078 479.891 172.594 481.795 172.594C483.699 172.594 485.421 174.078 485.421 176.64C485.421 179.202 483.699 180.672 481.795 180.672ZM481.795 179.356C483.013 179.356 483.769 178.278 483.769 176.64C483.769 175.016 483.013 173.924 481.795 173.924C480.591 173.924 479.835 175.016 479.835 176.64C479.835 178.278 480.591 179.356 481.795 179.356ZM488.479 180.49L486.393 172.79H488.017L489.039 176.948C489.193 177.704 489.319 178.404 489.459 179.146H489.515C489.683 178.404 489.837 177.69 490.019 176.948L491.111 172.79H492.595L493.701 176.948C493.883 177.704 494.037 178.404 494.219 179.146H494.275C494.429 178.404 494.555 177.704 494.723 176.948L495.717 172.79H497.229L495.241 180.49H493.309L492.329 176.682C492.147 175.954 492.007 175.254 491.839 174.456H491.769C491.615 175.254 491.475 175.968 491.279 176.696L490.341 180.49H488.479Z" fill="#DE1D43"/>
</svg>