<svg width="482" height="311" viewBox="0 0 482 311" fill="none" xmlns="http://www.w3.org/2000/svg">
<path d="M482 0H0V310.876H482V0Z" fill="#F2F7F9"/>
<path d="M467.669 39.0811H14.3281V291.805H467.669V39.0811Z" fill="white"/>
<rect x="46.8984" y="54.7134" width="91.1892" height="6.51351" rx="1" fill="#BFD4E4"/>
<path d="M482 0H0V19.9645H482V0Z" fill="#DE1D43"/>
<path d="M14.2583 14.2632C15.8336 14.2632 17.1104 12.9863 17.1104 11.4112C17.1104 9.83599 15.8336 8.55908 14.2583 8.55908C12.6832 8.55908 11.4062 9.83599 11.4062 11.4112C11.4062 12.9863 12.6832 14.2632 14.2583 14.2632Z" fill="white"/>
<path d="M28.516 14.2632C30.0913 14.2632 31.3681 12.9863 31.3681 11.4112C31.3681 9.83599 30.0913 8.55908 28.516 8.55908C26.9409 8.55908 25.6641 9.83599 25.6641 11.4112C25.6641 12.9863 26.9409 14.2632 28.516 14.2632Z" fill="white"/>
<path d="M42.7816 14.2632C44.3569 14.2632 45.6337 12.9863 45.6337 11.4112C45.6337 9.83599 44.3569 8.55908 42.7816 8.55908C41.2065 8.55908 39.9297 9.83599 39.9297 11.4112C39.9297 12.9863 41.2065 14.2632 42.7816 14.2632Z" fill="white"/>
<rect x="300.125" y="70.8457" width="143.6" height="200.919" rx="4.5" fill="#F2F7F9" stroke="#DDEAF3"/>
<path d="M300.125 195.905H443.725V267.265C443.725 269.75 441.71 271.765 439.225 271.765H304.625C302.14 271.765 300.125 269.75 300.125 267.265V195.905Z" fill="white" stroke="#DDEAF3"/>
<path fill-rule="evenodd" clip-rule="evenodd" d="M410.767 102.526C410.767 97.7239 406.838 93.7949 402.036 93.7949H340.919C336.116 93.7949 332.188 97.7239 332.188 102.526V163.643C332.188 168.445 336.116 172.374 340.919 172.374H402.036C406.838 172.374 410.767 168.445 410.767 163.643V102.526ZM356.201 139.632L367.115 152.772L382.394 133.084L402.039 159.277H340.922L356.201 139.632Z" fill="#DE1D43"/>
<rect x="312.648" y="205.827" width="118.546" height="11.7243" rx="1" fill="#BFD4E4"/>
<rect x="312.648" y="227.973" width="97.7027" height="11.7243" rx="1" fill="#BFD4E4"/>
<rect x="312.648" y="250.119" width="84.6757" height="11.7243" rx="1" fill="#BFD4E4"/>
<circle cx="130.271" cy="171.956" r="82.873" fill="#F2F7F9" stroke="#DDEAF3"/>
<rect x="88.6641" y="100.058" width="1.2083" height="166.746" transform="rotate(-30 88.6641 100.058)" fill="#DDEAF3"/>
<rect x="213.641" y="170.748" width="1.20831" height="166.746" transform="rotate(90 213.641 170.748)" fill="#DDEAF3"/>
<rect x="172.039" y="99.4492" width="1.2083" height="166.746" transform="rotate(30 172.039 99.4492)" fill="#DDEAF3"/>
<path d="M146.692 171.957C146.692 181.023 139.342 188.373 130.276 188.373C121.209 188.373 113.859 181.023 113.859 171.957C113.859 162.89 121.209 155.541 130.276 155.541C139.342 155.541 146.692 162.89 146.692 171.957Z" fill="#F2F7F9" stroke="#DDEAF3"/>
<path d="M243.609 166.746H269.663M269.663 166.746L259.893 156.976M269.663 166.746L259.893 176.517" stroke="#DE1D43" stroke-width="2.5" stroke-linecap="round" stroke-linejoin="round"/>
</svg>
