<svg width="116" height="83" viewBox="0 0 116 83" fill="none" xmlns="http://www.w3.org/2000/svg">
<g id="Group">
<g id="Group_2">
<path id="Vector" d="M0.265625 60.5449C0.265625 47.6675 0.265625 34.79 0.265625 21.8336C17.0142 18.1205 33.6837 14.3284 50.4323 10.6152C50.4323 16.6194 50.4323 19.7006 50.4323 25.7048C40.873 26.8108 31.3136 27.8378 21.8333 28.9439C21.8333 31.3929 21.8333 32.657 21.8333 35.106C30.1286 34.632 38.4239 34.158 46.7982 33.684C46.7982 39.6882 46.7982 42.6903 46.7982 48.7735C38.5029 48.2995 30.2076 47.8255 21.8333 47.3515C21.8333 49.8005 21.8333 50.9856 21.8333 53.4347C31.3927 54.5407 40.952 55.5678 50.4323 56.6738C50.4323 62.678 50.4323 65.7591 50.4323 71.7633C33.6837 68.0502 16.9352 64.258 0.265625 60.5449Z" fill="#DE1D43"/>
<path id="Vector_2" d="M55.8828 73.0274C55.8828 51.8547 55.8828 30.603 55.8828 9.43025C68.1282 6.66516 80.4526 3.9001 92.698 1.21401C99.2553 -0.287041 104.311 0.581998 107.788 4.13712C111.343 7.69223 113.081 13.6174 113.081 21.5967C113.081 26.0998 112.528 30.05 111.343 33.2101C110.158 36.3702 108.657 38.8192 106.681 40.6363C109.368 42.1373 111.422 44.2704 113.002 47.0355C114.503 49.8006 115.53 54.1458 115.293 59.3599C115.056 65.6011 114.424 73.1854 109.447 78.1625C105.575 82.0337 100.203 83.0607 93.251 81.4807C80.8476 78.6366 68.3652 75.7925 55.8828 73.0274ZM76.3445 33.2891C80.6106 33.0521 82.7437 32.973 86.9308 32.736C90.802 32.578 92.7771 30.2869 92.7771 26.0208C92.7771 23.9667 92.303 22.3867 91.355 21.3597C90.407 20.3326 88.8269 20.0166 86.6938 20.2536C82.5857 20.7276 80.5316 20.9647 76.3445 21.5177C76.3445 26.2579 76.3445 28.5489 76.3445 33.2891ZM76.3445 60.94C80.7686 61.493 82.9807 61.73 87.3258 62.283C91.434 62.757 93.4091 60.703 93.4091 56.0418C93.4091 51.6967 91.276 49.4846 87.0889 49.2476C82.7437 49.0106 80.6106 48.9316 76.2655 48.7736C76.3445 53.6718 76.3445 56.1208 76.3445 60.94Z" fill="black"/>
</g>
</g>
</svg>
