<svg width="109" height="91" viewBox="0 0 109 91" fill="none" xmlns="http://www.w3.org/2000/svg">
<g id="Group">
<g id="Group_2">
<path id="Vector" d="M0.773438 90.3C0.773438 60.2 0.773438 30.1 0.773438 0C17.522 4.02913 34.1915 7.97928 50.9401 12.0084C50.9401 18.5656 50.9401 21.8047 50.9401 28.362C41.3808 27.1769 31.8215 26.0709 22.3411 24.8858C22.3411 28.994 22.3411 30.9691 22.3411 35.0772C30.6364 35.5512 38.9317 36.1042 47.306 36.5783C47.306 43.4515 47.306 46.9276 47.306 53.8008C39.0107 54.2748 30.7154 54.8278 22.3411 55.3018C22.3411 59.331 22.3411 61.3061 22.3411 65.3352C31.9005 64.1501 41.4598 63.0441 50.9401 61.8591C50.9401 68.4163 50.9401 71.6554 50.9401 78.2126C34.2706 82.3207 17.522 86.3499 0.773438 90.3Z" fill="black"/>
<path id="Vector_2" d="M69.6601 73.8674C69.6601 59.4099 69.6601 44.9525 69.6601 30.574C62.7869 29.705 59.3107 29.3099 52.4375 28.4409C52.4375 22.0417 52.4375 18.8816 52.4375 12.4824C71.1611 16.9856 89.8057 21.4097 108.529 25.9129C108.529 29.705 108.529 31.601 108.529 35.3142C101.577 34.4451 98.101 34.0501 91.2278 33.1811C91.2278 45.0315 91.2278 56.8819 91.2278 68.7323C84.0386 70.3913 76.8493 72.1294 69.6601 73.8674Z" fill="black"/>
</g>
</g>
</svg>
