<svg width="264" height="34" viewBox="0 0 264 34" fill="none" xmlns="http://www.w3.org/2000/svg">
<g clip-path="url(#clip0_2517_39742)">
<path opacity="0.2" fill-rule="evenodd" clip-rule="evenodd" d="M10.4554 14.3862H3.92079L0 19.614H10.4554H20.9109H27.4455L31.3663 14.3862H20.9109H10.4554Z" fill="#DE1D43"/>
<path opacity="0.5" fill-rule="evenodd" clip-rule="evenodd" d="M47.0492 14.3862H40.5145L36.5938 19.614H47.0492H57.5046H64.0393L67.9601 14.3862H57.5046H47.0492Z" fill="#DE1D43"/>
<path fill-rule="evenodd" clip-rule="evenodd" d="M83.6429 14.3862H77.1083L73.1875 19.614H83.6429H94.0984H100.633L104.554 14.3862H94.0984H83.6429Z" fill="#DE1D43"/>
<path fill-rule="evenodd" clip-rule="evenodd" d="M169.901 14.3862H163.366L159.445 19.614H169.901H180.356H186.891L190.812 14.3862H180.356H169.901Z" fill="#DE1D43"/>
<path opacity="0.5" fill-rule="evenodd" clip-rule="evenodd" d="M206.495 14.3862H199.96L196.039 19.614H206.495H216.95H223.485L227.405 14.3862H216.95H206.495Z" fill="#DE1D43"/>
<path opacity="0.2" fill-rule="evenodd" clip-rule="evenodd" d="M243.088 14.3862H236.554L232.633 19.614H243.088H253.544H260.078L263.999 14.3862H253.544H243.088Z" fill="#DE1D43"/>
<path d="M132.01 6.33398C133.311 11.5971 137.421 15.7065 142.684 17.0082C137.287 18.0653 133.067 22.2851 132.01 27.6822C130.646 22.4545 126.564 18.3719 121.336 17.0082C126.7 15.8905 130.892 11.6987 132.01 6.33398Z" fill="#DE1D43"/>
</g>
<defs>
<clipPath id="clip0_2517_39742">
<rect width="264" height="34" fill="white"/>
</clipPath>
</defs>
</svg>
