<svg width="28" height="28" viewBox="0 0 28 28" fill="none" xmlns="http://www.w3.org/2000/svg">
<path fill-rule="evenodd" clip-rule="evenodd" d="M20.4132 12.5876C20.7881 12.9627 20.9987 13.4713 20.9987 14.0016C20.9987 14.532 20.7881 15.0406 20.4132 15.4156L12.3552 23.4716C12.1676 23.6591 11.9133 23.7644 11.6482 23.7644C11.383 23.7644 11.1287 23.6591 10.9412 23.4716L10.2342 22.7646C10.0467 22.5771 9.94141 22.3228 9.94141 22.0576C9.94141 21.7925 10.0467 21.5382 10.2342 21.3506L17.5842 13.9996L10.2342 6.64963C10.0467 6.4621 9.94141 6.20779 9.94141 5.94263C9.94141 5.67746 10.0467 5.42315 10.2342 5.23563L10.9412 4.52863C11.1287 4.34115 11.383 4.23584 11.6482 4.23584C11.9133 4.23584 12.1676 4.34115 12.3552 4.52863L20.4132 12.5876Z" fill="black"/>
</svg>
