<svg width="28" height="28" viewBox="0 0 28 28" fill="none" xmlns="http://www.w3.org/2000/svg">
<path fill-rule="evenodd" clip-rule="evenodd" d="M7.58677 15.4124C7.21187 15.0373 7.00126 14.5287 7.00126 13.9984C7.00126 13.468 7.21187 12.9594 7.58677 12.5844L15.6448 4.5284C15.8324 4.3409 16.0867 4.2356 16.3518 4.2356C16.617 4.2356 16.8713 4.3409 17.0588 4.5284L17.7658 5.2354C17.9533 5.4229 18.0586 5.6772 18.0586 5.9424C18.0586 6.2075 17.9533 6.4618 17.7658 6.6494L10.4158 14.0004L17.7658 21.3504C17.9533 21.5379 18.0586 21.7922 18.0586 22.0574C18.0586 22.3225 17.9533 22.5768 17.7658 22.7644L17.0588 23.4714C16.8713 23.6589 16.617 23.7642 16.3518 23.7642C16.0867 23.7642 15.8324 23.6589 15.6448 23.4714L7.58677 15.4124Z" fill="black"/>
</svg>
