<svg width="152" height="152" viewBox="0 0 152 152" fill="none" xmlns="http://www.w3.org/2000/svg">
<path d="M126.032 66.8802L123.625 72.8336C122.865 74.8602 122.865 77.0136 123.625 79.0402L126.032 84.9936C127.425 88.5402 126.285 92.5936 123.119 94.8736L117.799 98.5469C116.025 99.8136 114.885 101.714 114.379 103.74L113.239 110.074C112.479 113.874 109.312 116.66 105.512 116.787L99.0519 117.04C96.8985 117.167 94.8719 118.054 93.3519 119.574L88.9185 124.26C86.2585 127.047 82.0785 127.68 78.7852 125.78L73.2119 122.487C71.3119 121.347 69.1585 121.094 67.0052 121.6L60.6719 123.12C56.9985 124.007 53.0719 122.234 51.2985 118.814L48.3852 112.987C47.3719 111.087 45.7252 109.567 43.6985 108.934L37.6185 106.907C33.9452 105.64 31.6652 102.094 32.0452 98.2936L32.6785 91.8336C32.9319 89.6802 32.2985 87.5269 30.9052 85.8802L26.8519 80.8136C24.4452 77.7736 24.4452 73.5936 26.8519 70.5536L30.9052 65.4869C32.2985 63.8402 32.9319 61.6869 32.6785 59.5336L32.0452 53.0736C31.6652 49.2736 33.9452 45.7269 37.6185 44.4602L43.6985 42.4336C45.7252 41.8002 47.3719 40.2802 48.3852 38.3802L51.2985 32.5536C53.0719 29.1336 56.8719 27.3602 60.6719 28.2469L67.0052 29.7669C69.0319 30.2736 71.3119 30.0202 73.2119 28.8802L78.7852 25.5869C82.0785 23.6869 86.2585 24.1936 88.9185 27.1069L93.3519 31.7936C94.8719 33.3136 96.8985 34.3269 99.0519 34.3269L105.512 34.5802C109.312 34.7069 112.605 37.4936 113.239 41.2936L114.379 47.6269C114.759 49.7802 116.025 51.6802 117.799 52.8202L123.119 56.4936C126.285 59.2802 127.552 63.3336 126.032 66.8802Z" fill="#00D566"/>
<g opacity="0.15">
<path d="M54.9719 118.433L52.0585 112.607C51.0452 110.707 49.3985 109.187 47.3719 108.553L41.2919 106.527C37.6185 105.26 35.3385 101.713 35.7185 97.9132L36.3519 91.4532C36.6052 89.2999 35.9719 87.1466 34.5785 85.4999L30.5252 80.4332C28.1185 77.3932 28.1185 73.2132 30.5252 70.1732L34.5785 65.1066C35.9719 63.4599 36.6052 61.3066 36.3519 59.1532L35.7185 52.6932C35.3385 48.8932 37.6185 45.3465 41.2919 44.0799L47.3719 42.0532C49.3985 41.4199 51.0452 39.8999 52.0585 37.9999L54.9719 32.1732C55.9852 30.1465 57.7585 28.7532 59.6585 28.1199C56.2385 27.6132 52.8185 29.3865 51.2985 32.5532L48.3852 38.3799C47.3719 40.2799 45.7252 41.7999 43.6985 42.4332L37.6185 44.4599C33.9452 45.7265 31.6652 49.2732 32.0452 53.0732L32.6785 59.5332C32.9319 61.6866 32.2985 63.8399 30.9052 65.4866L26.8519 70.5532C24.4452 73.5932 24.4452 77.7732 26.8519 80.8132L30.9052 85.8799C32.2985 87.5266 32.9319 89.6799 32.6785 91.8332L32.0452 98.2932C31.6652 102.093 33.9452 105.64 37.6185 106.907L43.6985 108.933C45.7252 109.567 47.3719 111.087 48.3852 112.987L51.2985 118.813C53.0719 122.233 56.8719 124.007 60.6719 123.12L61.4319 122.993C58.6452 122.487 56.2385 120.967 54.9719 118.433Z" fill="black"/>
<path d="M76.7558 28.4998L82.3292 25.2065C82.8358 24.9531 83.3425 24.6998 83.8492 24.5731C82.0758 24.3198 80.1758 24.6998 78.6558 25.5865L73.0825 28.8798C72.5758 29.1331 72.0692 29.3865 71.5625 29.5131C73.3358 29.7665 75.1092 29.5131 76.7558 28.4998Z" fill="black"/>
<path d="M102.601 116.534C101.968 116.534 101.335 116.66 100.828 116.787L105.388 116.534C106.021 116.534 106.528 116.407 107.161 116.28L102.601 116.534Z" fill="black"/>
<path d="M82.3291 125.274L76.7557 121.98C74.8557 120.84 72.7024 120.587 70.5491 121.094L69.7891 121.22C70.9291 121.347 71.9424 121.727 72.9557 122.234L78.5291 125.527C80.6824 126.794 83.0891 126.92 85.3691 126.16C84.3557 126.16 83.3424 125.907 82.3291 125.274Z" fill="black"/>
</g>
<path d="M55.7344 67.8941L71.5677 86.0074L103.994 59.9141" fill="#00D566"/>
<path d="M67.7643 95.3799C65.9909 95.3799 64.2176 94.6199 62.9509 93.2265L47.1176 75.1132C44.8376 72.4532 45.0909 68.5265 47.6243 66.1199C50.2843 63.8399 54.2109 64.0932 56.6176 66.6265L68.5243 80.1799L96.2643 57.8865C98.9243 55.7332 102.978 56.1132 105.131 58.8999C107.284 61.6865 106.904 65.6132 104.118 67.7665L71.6909 93.9865C70.5509 94.8732 69.1576 95.3799 67.7643 95.3799Z" fill="white"/>
</svg>
